<?xml version="1.0" encoding="UTF-8"?>
<svg id="svg3028" version="1.1" viewBox="0 0 100 100" xmlns="http://www.w3.org/2000/svg"><defs id="defs3025"><filter id="filter2272-5" x="-.01585" y="-.01585" width="1.032" height="1.032" style="color-interpolation-filters:sRGB"><feGaussianBlur id="feGaussianBlur2270-4" stdDeviation="0.56826707"/></filter></defs><g id="layer1"><g id="g8041" transform="matrix(.7727 0 0 .7727 .5462 .5462)"><path id="path7988" transform="matrix(.6414 .1719 -.1719 .6414 56.55 47.69)" d="m107.3 44.96c-2.415 9.011-56.96 63.55-65.97 65.97s-83.52-17.55-90.11-24.15-26.56-81.1-24.15-90.11c2.415-9.011 56.96-63.55 65.97-65.97 9.011-2.415 83.52 17.55 90.11 24.15s26.56 81.1 24.15 90.11z" style="fill:#abc3d1;filter:url(#filter2272-5);mix-blend-mode:normal;paint-order:markers fill stroke;stop-color:#000000;stroke-linecap:round;stroke-linejoin:round;stroke-miterlimit:5.1;stroke-opacity:.3365;stroke-width:2.953;stroke:#ef4b00"/><g id="text7994" transform="matrix(.9993 0 0 1.726 .002532 18.89)" style="fill:#d5faff;paint-order:markers stroke fill;shape-inside:url(#rect7996);stroke-opacity:.75;stroke-width:.7614;stroke:#000000;white-space:pre" aria-label="Cannon"><path id="path8014" d="m33.97 7.184h.6968v1.7h-.7126v2.101c0 .3273.06862.6281.2111.9079.1425.2798.3325.5173.5754.7073h7.168l.227.1689h-7.152c.3114.19.6598.2798 1.035.2798h6.588v-1.525h-5.843c-.2006 0-.3695-.06862-.512-.2111s-.2164-.3167-.2164-.5173v-1.684h.6229v-2.069c.03695-.00528.06862-.01056.1056-.01056h5.843v-1.684h-6.588c-.5279 0-.9871.1742-1.367.5226-.3853.3484-.6123.7865-.6809 1.314z"/><path id="path8016" d="m52.23 10.66-2.623-4.017v-.02111h-1.061v.02111l-1.198 1.832h-1.325l.3273.4064h.7337l-.4328.6598h-.2534l-1.663 2.497h.285l-.6598 1.008h1.621l.871-1.167h-.4223l1.547-2.333.4909-.01056.607-.929 1.32 2.053zm-1.599.3695.03167.04751h-.3378v.5067h.6651l.9396 1.462h1.863l-1.32-2.016z"/><path id="path8018" d="m57.6 6.999v-.3431h-1.647v3.869h-.4117v.8551h.4117v1.679h1.647v-1.584h-.417v-.929h.417v-1.863l.5067.3853h2.212zm5.152.2639h-.5173v.702h.5173v2.56h-.4117v.07918l-1.758-1.341h-2.217l1.832 1.388h-.2956l.7865.5806h.2692l1.795 1.362v.4645h1.647v-1.584h-.417v-.929h.417v-3.89h-1.647z"/><path id="path8020" d="m68.22 6.999v-.3431h-1.647v3.869h-.4117v.8551h.4117v1.679h1.647v-1.584h-.417v-.929h.417v-1.863l.5067.3853h2.212zm5.152.2639h-.5173v.702h.5173v2.56h-.4117v.07918l-1.758-1.341h-2.217l1.832 1.388h-.2956l.7865.5806h.2692l1.795 1.362v.4645h1.647v-1.584h-.417v-.929h.417v-3.89h-1.647z"/><path id="path8022" d="m82.87 7.015h-.5173v-.1372h.3167c-.2639-.1531-.549-.2323-.8657-.2323h-3.32c-.4381 0-.8182.1425-1.14.4328-.322.2903-.5067.6545-.5648 1.093h.2323v.9712h.1847v.1372h-.1847v.3062h-.2428v1.752c0 .2692.05806.5226.1742.7548.1161.2323.2745.4328.4751.5912h.6968v.1372h-.4909c.2586.1584.549.2375.8604.2375h3.32c.4434 0 .8234-.1478 1.14-.4381.322-.2903.512-.6545.5701-1.093h-.2375v-1.415h.2481v-1.752c0-.2692-.05806-.5226-.1742-.7548-.1214-.2323-.2798-.4276-.4803-.5912zm-5.437 4.207h-.1108v-3.252h.1108zm4.36-1.299h-.2006v.4962h.19v.1372h-.19v1.093h-.0739c-.03695 0-.07918.0053-.132.0053h-.132-.06862-1.504v.132h-.5754c-.1689 0-.3114-.05806-.4328-.1795-.1161-.1161-.1742-.2586-.1742-.4276v-1.404h.2006v-.4962h-.1056v-.1372h.1056v-1.087c.01056-.00528.03167-.00528.0739-.00528h.1267.132c.04223-.00528.06334-.00528.0739-.00528h1.504v-.132h.5754c.1689 0 .3114.06334.4276.1795.1214.1214.1795.2639.1795.4276z"/><path id="path8024" d="m87.34 6.999v-.3431h-1.647v3.869h-.4117v.8551h.4117v1.679h1.647v-1.584h-.417v-.929h.417v-1.863l.5067.3853h2.212zm5.152.2639h-.5173v.702h.5173v2.56h-.4117v.07918l-1.758-1.341h-2.217l1.832 1.388h-.2956l.7865.5806h.2692l1.795 1.362v.4645h1.647v-1.584h-.417v-.929h.417v-3.89h-1.647z"/></g><g id="g8002" transform="matrix(1.16 0 0 1.16 294.6 -263)"><path id="path8012" d="m-222 315.3-1.155-2.159-2.895.7572-2.037-2.22c-1.12-1.221-2.789-3.546-3.709-5.167l-1.672-2.947.1052-10.11.1052-10.11 1.587-2.526c.8727-1.389 2.495-3.525 3.604-4.746l2.017-2.22 2.895.7572 2.311-4.318h19.41l4.532 4.342-.396 1.514c-.4462 1.706-3.807 3.762-6.216 3.802l-1.595.0265.1997.8421c.1098.4632.512.738.8938.6107l.6942-.2314-.9948 1.61.9078.561c.4993.3086 1.249 1.458 1.665 2.553l.7575 1.992 26.33-.6034 1.861-1.861h6.905l2.021 2.021v12.8l-2.021 2.021h-6.905l-1.957-1.957-26.24-.505-.7571 1.991c-.4164 1.095-1.166 2.244-1.665 2.552l-.9078.561.9948 1.61-.6942-.2314c-.3818-.1273-.784.1476-.8938.6107l-.1997.8421 1.595.0265c2.409.04 5.77 2.095 6.216 3.802l.396 1.514-4.532 4.342h-19.41l-1.155-2.159z" style="fill:#8eb529;stroke-width:.8421"/><path id="path8010" d="m-221.7 315.2-.4642-1.849-5.266-.5159-5.944-8.527.1344-21.19 5.861-8.18 5.214-.5159.9283-3.699 19.08-.5246 4.575 3.598v3.482l-1.474 1.119c-.8105.6153-2.493 1.131-3.74 1.145-1.246.0147-2.469.3551-2.717.7563l-.4509.7296 1.761 1.586c.9686.8724 2.089 2.443 2.489 3.49l.7282 1.904 26.09-.4746 2.07-2.07h6.905l2.021 2.021v12.8l-2.021 2.021h-6.905l-1.998-1.998-26.15-.5673-.7321 1.914c-.4026 1.053-1.525 2.628-2.493 3.501l-1.761 1.586.4509.7296c.248.4012 1.471.7416 2.717.7563 1.246.0147 2.929.5302 3.74 1.145l1.474 1.119v3.482l-4.575 3.598-19.08-.5246-.4642-1.849zm-2.585-5.79c-2.908-1.273-4.457-3.429-4.457-6.204 0-2.638 1.406-2.079 1.979.7867l.5053 2.526h5.937v-.8421c0-.4632-.4292-.8421-.9539-.8421-1.476 0-4.096-3.424-4.126-5.392-.0147-.9712-.5832-2.501-1.263-3.401l-1.236-1.635-.0129 2.056-.0129 2.056-1.567-2.478-.6752.6752c-.3714.3713-.6085 2.399-.527 4.505l.1482 3.83 5.503 5.678 3.459-.1374-2.701-1.182zm7.104-8.452c-.2798-.2798-1.006-.3097-1.614-.0665l-1.105.4423 1.614.0665c.8877.0366 1.385-.1625 1.105-.4423zm50.62-4.57.2914-1.999-2.614 2.17-1.758-1.086v1.243c0 1.29 1.485 2.237 2.947 1.878.4632-.1135.9732-1.106 1.134-2.205zm-1.799-3.343-.4404-1.684h2.492l-.2918-1.474-.2918-1.474-2.928.12c-1.61.066-4.823.5916-7.138 1.168l-4.211 1.048 3.789 1.135c2.084.6243 3.884 1.141 4 1.148.1158.007.2404-.6504.277-1.461l.0665-1.474.4213 1.263c.2317.6947.5688 1.737.7492 2.316l.3279 1.053h3.618l-.4404-1.684zm-60.22-9.263c1.136-3.65 1.907-4.178 6.147-4.211 1.853-.0142 3.937-.3931 4.632-.8421.6947-.449 1.074-.8511.8421-.8936-.5038-.0925-2.615-.5392-3.789-.8018-.4632-.1035-1.716-.1434-2.784-.0885l-1.942.0997-4.958 5.428.2294 8.467.3533-2.105c.1943-1.158.766-3.432 1.271-5.053zm6.466-2.004c.7508.3404 3.212.7808 5.469.9788l4.104.36-1.244-2.012-5.678 1.065-3.605-1.929-4.092 1.865 1.044 1.69 2.636-2.636z" style="fill:#b85b20;stroke-width:.8421"/><path id="path8008" d="m-221.7 315.2-.4642-1.849-5.266-.5159-5.944-8.527.1344-21.19 5.861-8.18 5.214-.5159.9283-3.699 19.08-.5246 4.575 3.598v3.482l-1.474 1.119c-.8105.6153-2.493 1.131-3.74 1.145-1.246.0147-2.469.3551-2.717.7563l-.4509.7296 1.761 1.586c.9686.8724 2.089 2.443 2.489 3.49l.7282 1.904 26.09-.4746 2.07-2.07h6.905l2.021 2.021v12.8l-2.021 2.021h-6.905l-1.998-1.998-26.15-.5673-.7321 1.914c-.4026 1.053-1.525 2.628-2.493 3.501l-1.761 1.586.4509.7296c.248.4012 1.471.7416 2.717.7563 1.246.0147 2.929.5302 3.74 1.145l1.474 1.119v3.482l-4.575 3.598-19.08-.5246-.4642-1.849zm20.12-1.261c1.274-.4882 2.316-1.207 2.316-1.598 0-1.3-3.214-2.454-6.838-2.454h-3.58l-3.981 3.74-5.812-.5007v.8449c0 .4647.6632 1.008 1.474 1.207 2.401.5899 13.92-.2793 16.42-1.24zm-22.7-4.529c-2.908-1.273-4.457-3.429-4.457-6.204 0-2.638 1.406-2.079 1.979.7867l.5053 2.526h5.937v-.8421c0-.4632-.4292-.8421-.9539-.8421-1.476 0-4.096-3.424-4.126-5.392-.0147-.9712-.5832-2.501-1.263-3.401l-1.236-1.635-.0129 2.056-.0129 2.056-1.567-2.478-.6752.6752c-.3714.3713-.6085 2.399-.527 4.505l.1482 3.83 5.503 5.678 3.459-.1374-2.701-1.182zm7.104-8.452c-.2798-.2798-1.006-.3097-1.614-.0665l-1.105.4423 1.614.0665c.8877.0366 1.385-.1625 1.105-.4423zm50.62-4.57.2914-1.999-2.614 2.17-1.758-1.086v1.243c0 1.29 1.485 2.237 2.947 1.878.4632-.1135.9732-1.106 1.134-2.205zm-1.799-3.343-.4404-1.684h2.492l-.2918-1.474-.2918-1.474-2.928.12c-1.61.066-4.823.5916-7.138 1.168l-4.211 1.048 3.789 1.135c2.084.6243 3.884 1.141 4 1.148.1158.007.2404-.6504.277-1.461l.0665-1.474.4213 1.263c.2317.6947.5688 1.737.7492 2.316l.3279 1.053h3.618l-.4404-1.684zm-60.22-9.263c1.136-3.65 1.907-4.178 6.147-4.211 1.853-.0142 3.937-.3931 4.632-.8421.6947-.449 1.074-.8511.8421-.8936-.5038-.0925-2.615-.5392-3.789-.8018-.4632-.1035-1.716-.1434-2.784-.0885l-1.942.0997-4.958 5.428.2294 8.467.3533-2.105c.1943-1.158.766-3.432 1.271-5.053zm6.466-2.004c.7508.3404 3.212.7808 5.469.9788l4.104.36-1.244-2.012-5.678 1.065-3.605-1.929-4.092 1.865 1.044 1.69 2.636-2.636zm21.21-4.762c3.791-2.029.0659-3.867-9.075-4.477-6.502-.4341-9.507-.014-9.507 1.329v.836l5.916-.6907 3.64 3.875h3.698c2.034 0 4.431-.3923 5.327-.8717z" style="fill:#5fa02a;stroke-width:.8421"/><path id="path8006" d="m-217.1 316.9-3.913-.3523-.8586-3.283h-1.694c-2.971 0-4.299-.9314-6.968-4.885l-2.606-3.862v-21.24l2.606-3.862c2.668-3.954 3.997-4.885 6.968-4.885h1.694l.8429-3.223 15.79-1.184 2.343.5848c4.902 1.223 6.7 4.811 3.75 7.481l-1.54 1.394h-6.498l2.16 2.316c1.188 1.274 2.598 3.168 3.135 4.211l.9746 1.895h26.71l.9694-2.526h7.295l2.021 2.021v12.8l-2.021 2.021h-6.141l-5.156-2.572-24.84.467-.2304 1.576c-.1267.8668-1.275 2.667-2.553 4l-2.322 2.424h6.791l1.394 1.54c1.865 2.061 1.756 3.766-.365 5.685l-1.759 1.592-6.031.1118c-3.317.0615-7.792-.0467-9.944-.2405zm15.49-2.952c1.274-.4882 2.316-1.207 2.316-1.598 0-1.3-3.214-2.454-6.838-2.454h-3.58l-3.981 3.74-5.812-.5007v.8449c0 .4647.6632 1.008 1.474 1.207 2.401.5899 13.92-.2793 16.42-1.24zm-7.925-7.228 5.188-4.861v-2.718c0-3.252-.5959-3.475-1.678-.6291l-.7943 2.089-2.58-.9901v-3.188h-1.341c-.7375 0-2.304.7579-3.482 1.684l-2.141 1.684h-4.825l-.1543-3.158c-.0848-1.737-.0957-4.102-.024-5.257l.1302-2.099 1.436-1.05c.7899-.5776 1.266-1.22 1.059-1.427-.2075-.2075-1.666.7479-3.241 2.123l-2.864 2.5-1.37-2.158-.0258 2.205-1.57-.9701-.7044 4.66-.1262-2.758-.1262-2.758 2.343-.4686c1.289-.2577 3.276-1.172 4.416-2.032l2.073-1.563-3.044-1.168-4.103 1.87v1.281c0 .7047-.3789 1.281-.8421 1.281h-.8421v-5.52l2.622-3.743h13.15l2.22 2.22c1.221 1.221 2.22 2.796 2.22 3.499v1.279l-1.663-1.505c-.9145-.8276-1.887-2.213-2.162-3.078l-.4993-1.573h-5.769c-3.173 0-6.369.23-7.101.5111l-1.332.5112v3.247l3.054-1.635 11.68 1.354-6.263.2213.4968 1.295.4968 1.295-3.006 3.322.1346 3.436c.1449 3.698.6244 4.969 1.875 4.969h.7924v-10.01l1.758-1.086 2.097 1.74 7.418-1.883.3286.9858c.1807.5422.676.9858 1.101.9858h.7719v-3.553l-10.5-10.12-10.63.8533-1.73 1.565c-.9514.861-2.231 2.535-2.844 3.721l-1.115 2.155v19.18l1.115 2.155c2.293 4.435 4.723 5.673 11.47 5.843l3.865.0977 5.188-4.861zm-12.47 1.492-4.605-.4211-2.555-4.572 2.081-2.081v4.341l2.426 2.014 5.313-.1857c2.922-.1021 5.734-.5112 6.248-.9091l.9348-.7234-.6298-4.621 1.527 3.368.6015-1.474c.3308-.8105 1.129-1.474 1.775-1.474 1.627 0 1.489.5408-.9648 3.757l-2.138 2.803-2.704.2988c-1.487.1644-4.776.1094-7.309-.1222zm5.507-6.526c.4192-.3474.998-.9476 1.286-1.334l.5242-.7022 1.024 2.668h-3.596zm50.72-8.088.251-5.772-4.04.5595c-2.222.3077-10.48.821-18.36 1.141l-14.32.5812.1256 2.75c.0691 1.513.333 3.291.5864 3.951l.4608 1.201 13.73.1276c7.551.0702 14.36.1733 15.14.2292l1.412.1017-.8918 1.443 5.647-.5407zm-8.007 1.983-.4404-1.684-2.218-.0997c-1.22-.0548-2.502-.0548-2.849 0s-.6316-.2792-.6316-.7424c0-1.038.5548-1.048 3.957-.0729l2.682.7693.6008-3.644.8049 7.158h-.7327c-.403 0-.9309-.7579-1.173-1.684zm-8.648-2.927-1.065-1.284h.8955c1.018 0 2.204 1.598 1.62 2.182-.212.212-.8647-.1922-1.451-.8981zm-18.49-15.63c3.791-2.029.0659-3.867-9.075-4.477-6.502-.4341-9.507-.014-9.507 1.329v.836l5.916-.6907 3.64 3.875h3.698c2.034 0 4.431-.3923 5.327-.8717z" style="fill:#4d6a1f;stroke-width:.8421"/><path id="path8004" d="m-221.4 315-.4404-1.684h-2.023c-2.536 0-4.063-1.213-6.867-5.459l-2.215-3.353v-21.11l2.215-3.353c2.804-4.245 4.33-5.459 6.867-5.459h2.023l.8809-3.368h20.6l1.394 1.54c.7665.847 1.394 2.152 1.394 2.9v1.36l-3.743 2.622h-6.491l5.072 4.268.5307 3.732 27.45.4631 2.568-2.568h6.28l2.021 2.021v12.8l-2.021 2.021h-6.28l-2.568-2.568-27.43.4631-.2724 1.684-.2724 1.684-5.308 4.632h6.72l3.743 2.622v1.506c0 .8283-.693 2.133-1.54 2.9l-1.54 1.394h-20.3zm20.58-1.08 1.981-1.401-3.269-2.572h-7.838l-3.048 3.368h-6.476v2.272l16.67-.2668zm-9.648-5.322c2.099-1.72 4.53-4.298 5.404-5.731l1.588-2.604v-12.63l-1.588-2.604c-.8734-1.432-3.279-3.99-5.347-5.684l-3.759-3.08h-10.38l-6.291 5.765v23.84l5.976 5.477 10.58.3818zm-16.36-1.388c-.453-.579-1.032-1.905-1.287-2.947l-.4636-1.894 1.526-.9432v5.12l1.895.4334c1.042.2384 4.547.5503 7.789.6932l5.895.2598-14.53.3299zm15.92-3.047c1.077-1.328 2.084-2.309 2.237-2.178.5063.4319-2.561 4.594-3.386 4.594h-.8093zm-6.041-10.79v-5.631l5.053 4.841v1.38c0 1.331-3.294 5.042-4.475 5.042-.3175 0-.5773-2.534-.5773-5.631zm2.286-.865-1.444-1.444v5.774l2.887-2.887zm-13.68-8.446c.319-1.271.9749-2.787 1.458-3.368l.8775-1.057h13.18l2.148 2.816c1.181 1.549 2.148 3.155 2.148 3.569s-1.008-.6639-2.24-2.395l-2.24-3.148h-5.691c-3.13 0-6.291.23-7.023.5111l-1.332.5112v4.872h-1.867zm61.14 15.78h1.615v-11.68l-5.474-.5702-4.619 2.184-11.59-.3664c-6.372-.2016-12.44-.1687-13.48.0729l-1.895.4394v8.238l1.474.1166c.8105.0641 7.158.1589 14.11.2105l12.63.0939 1.684 1.03c.9263.5665 2.189.8507 2.806.6316s1.848-.3984 2.737-.3984zm-5.751-5.474.017-3.368.3662 1.905c.2014 1.048.1938 2.563-.017 3.368l-.3832 1.464.017-3.368zm-27.53-17.67 1.635-1.253-3.78-2.968h-16.43l-.8421 1.684 6.976.509 2.969 3.28h7.838z" style="fill:#060804;stroke-width:.8421"/></g></g></g></svg>
