<?xml version="1.0" encoding="UTF-8"?>
<svg id="svg3028" version="1.1" viewBox="0 0 100 100" xmlns="http://www.w3.org/2000/svg"><defs id="defs3025"><filter id="filter2272-8" x="-.01585" y="-.01585" width="1.032" height="1.032" style="color-interpolation-filters:sRGB"><feGaussianBlur id="feGaussianBlur2270-7" stdDeviation="0.56826707"/></filter><filter id="filter2272" x="-.01585" y="-.01585" width="1.032" height="1.032" style="color-interpolation-filters:sRGB"><feGaussianBlur id="feGaussianBlur2270" stdDeviation="0.56826707"/></filter></defs><g id="layer1"><g id="g6398" transform="translate(2.032 -2.72)"><path id="path5604" transform="matrix(.4956 .1328 -.1328 .4956 42.21 40.12)" d="m107.3 44.96c-2.415 9.011-56.96 63.55-65.97 65.97s-83.52-17.55-90.11-24.15-26.56-81.1-24.15-90.11c2.415-9.011 56.96-63.55 65.97-65.97 9.011-2.415 83.52 17.55 90.11 24.15s26.56 81.1 24.15 90.11z" style="fill:#cdd1ab;filter:url(#filter2272-8);mix-blend-mode:normal;paint-order:markers fill stroke;stop-color:#000000;stroke-linecap:round;stroke-linejoin:round;stroke-miterlimit:5.1;stroke-opacity:.3365;stroke-width:2.953;stroke:#ef8c00"/><path id="path5815" d="m40.46 42.66h-1.516v.7674h.1793v2.182c0 .2605-.05298.4858-.159.6688-.106.183-.2364.2746-.3872.2746h-3.004v-5.815h3.004.06522.1182c.04483.007.08152.007.1182.007.03261 0 .05707 0 .06522.007v1.69h1.516v-1.507h.2119c-.0489-.6829-.2201-1.246-.5095-1.704-.2894-.4506-.6317-.6759-1.027-.6759h-5.042v6.026h-.3709v1.345h.3709v2.605h5.042c.2812 0 .5421-.1197.7785-.3661h-4.341v-.2182h4.524c.1793-.2464.322-.5491.428-.9152.106-.359.159-.7533.159-1.176v-2.717h-.2242zm-6.052 1.485h-.1019v-3.407h.1019z" style="fill:#d5faff;paint-order:markers stroke fill;shape-inside:url(#rect5729);stroke-opacity:.75;stroke-width:.7727;stroke:#000000;white-space:pre"/><path id="path5817" d="m44.46 39.99h-.9497v.3027h-1.223v4.309h-.2405v2.028h.2405v2.197h5.038v-1.894h-3.807v-.4083h-.2282v-1.239h3.856v-1.845h-3.627v-1.331h3.807v-1.816h-2.865z" style="fill:#d5faff;paint-order:markers stroke fill;shape-inside:url(#rect5729);stroke-opacity:.75;stroke-width:.7727;stroke:#000000;white-space:pre"/><path id="path5819" d="m48.69 42.33h.4524v1.887h-.4606v2.337c0 .3661.04483.697.1345 1.014.09374.3098.216.5703.3709.7815h4.61l.1467.1901h-4.602c.2038.2042.4239.3098.6684.3098h4.235v-1.697h-3.758c-.1263 0-.2364-.07744-.3301-.2394-.08967-.1549-.1386-.345-.1386-.5703v-1.873h.4035v-2.302c.02038 0 .04483-.007.06522-.007h3.758v-1.873h-4.235c-.3424 0-.6358.1971-.8804.5843-.2486.3872-.3953.873-.4402 1.457z" style="fill:#d5faff;paint-order:markers stroke fill;shape-inside:url(#rect5729);stroke-opacity:.75;stroke-width:.7727;stroke:#000000;white-space:pre"/><path id="path5821" d="m55.6 44.68v3.203h.1956v.6336h-.1956v.3309h1.247v-1.126h.1508v-1.669h-.1508v-.6336h1.227l1.61 3.429h1.541l-1.956-4.168zm2.694-1.436h-1.068v-1.253h-.379v-1.507h-1.247v1.802h.4076v1.471h-.4076v.6618h3.684l1.94-4.133h-1.541z" style="fill:#d5faff;paint-order:markers stroke fill;shape-inside:url(#rect5729);stroke-opacity:.75;stroke-width:.7727;stroke:#000000;white-space:pre"/><path id="path5823" d="m33.04 58.02h-.9497v.3027h-1.223v4.309h-.2405v2.028h.2405v2.197h5.038v-1.894h-3.807v-.4083h-.2282v-1.239h3.856v-1.845h-3.627v-1.331h3.807v-1.816h-2.865z" style="fill:#d5faff;paint-order:markers stroke fill;shape-inside:url(#rect5729);stroke-opacity:.75;stroke-width:.7727;stroke:#000000;white-space:pre"/><path id="path5825" d="m43.72 58.74v4.358h-.08559v-4.273h-.02038v-.535h-.9863v.4576l-1.761 2.309h-.163l-.97-1.274h-.5421v-.1971h.3913l-.6399-.8378v-.4576h-1.679v.9575h.4035v4.851h-.3179v1.148h.3179v1.626h1.276v-2.119h-.322v-1.246h.322v-2.506l.3953.521c.3098.4013.6154.8026.9211 1.204.1508.1971.2975.3942.4443.5843h.163c.163-.2112.2975-.3872.3994-.521.1019-.1408.1834-.2464.2364-.3168.05707-.07744.09374-.1267.11-.1549.02038-.02816.02446-.0352.02038-.0352-.0082.007-.02038.02113-.03668.04224-.04076.04928-.06929.08448-.08559.09856-.0163.02113-.02038.02816-.02038.02816s.0041-.007.0163-.02111c.01223-.01409.02446-.02816.04076-.04928.0163-.02111.03261-.04224.0489-.05632.09374-.1197.3098-.3872.648-.8026h-.0082l.3913-.521v2.506h.3261v1.246h-.3261v2.119h1.276v-2.943h.322v-1.148h-.322v-3.534h.4035v-.9575h-.5869zm-5.779 4.358h-.08967v-4.358h.08967z" style="fill:#d5faff;paint-order:markers stroke fill;shape-inside:url(#rect5729);stroke-opacity:.75;stroke-width:.7727;stroke:#000000;white-space:pre"/><path id="path5827" d="m50.82 58.67h-.697v-.359h-4.459v5.456h.2608v1.985h-.2608v1.119h1.292v-3.562h3.318l-.0041-.01409c.3179-.07041.5788-.3027.7907-.704.2079-.4013.3138-.873.3138-1.422v-.7181c0-.3661-.05298-.7111-.1508-1.021-.1019-.3098-.2323-.5632-.4035-.7603zm-4.85 4.654h-.06928v-3.506h.06928zm4.121-2.337c0 .1338-.02446.2464-.08151.3379-.05298.09856-.1182.1408-.1956.1408h-2.857v-.9152h.2975v-.4928h2.56c.07744 0 .1427.04224.1956.1408.05706.09152.08151.2042.08151.3379z" style="fill:#d5faff;paint-order:markers stroke fill;shape-inside:url(#rect5729);stroke-opacity:.75;stroke-width:.7727;stroke:#000000;white-space:pre"/><path id="path5829" d="m52.73 58.31v2.197h1.223v-.2816h.7173v.2816h.05706v2.964h-.3138v1.148h.3138v2.239h1.272v-2.112h-.322v-1.239h.322v-2.999h1.683v-2.197h-2.955zm4.047.3168h.644v.1478h-.644zm-1.867 1.88h.08967v2.591h-.08967z" style="fill:#d5faff;paint-order:markers stroke fill;shape-inside:url(#rect5729);stroke-opacity:.75;stroke-width:.7727;stroke:#000000;white-space:pre"/><path id="path5831" d="m60.5 63.16v2.013h.2731v-2.013zm1.997-4.513h.2772l-1.011 2.07h-.5135l-.4157-.8378h.4239l-.8804-1.57h-1.748v.3379h.2812l.4972 1.021h-.2853l1.463 2.929-.02446.04224h.3424v3.217h-.4687v.8519h.4687v.176h1.618v-1.274h-.1345v-2.499h.1345v-.7322h-.2323l.106-.2182.4932-.007c.4035-.8307.8478-1.774 1.333-2.83.1712-.3731.3301-.7111.4687-1.014h-2.193zm-1.251 7.793h-.11v-3.802h.11zm2.947-7.582-1.39 2.901-.07336-.06336 1.39-2.901z" style="fill:#d5faff;paint-order:markers stroke fill;shape-inside:url(#rect5729);stroke-opacity:.75;stroke-width:.7727;stroke:#000000;white-space:pre"/></g><g id="g7471" transform="matrix(.7727 0 0 .7727 199.3 -268)"><path id="path6780" transform="matrix(.6414 .1719 -.1719 .6414 44.07 33.29)" d="m107.3 44.96c-2.415 9.011-56.96 63.55-65.97 65.97s-83.52-17.55-90.11-24.15-26.56-81.1-24.15-90.11c2.415-9.011 56.96-63.55 65.97-65.97 9.011-2.415 83.52 17.55 90.11 24.15s26.56 81.1 24.15 90.11z" style="fill:#abc3d1;filter:url(#filter2272);mix-blend-mode:normal;paint-order:markers fill stroke;stop-color:#000000;stroke-linecap:round;stroke-linejoin:round;stroke-miterlimit:5.1;stroke-opacity:.3365;stroke-width:2.953;stroke:#ef4b00"/><g id="g6876" transform="translate(137.5 -154.5)"><path id="path6884" d="m-111.9 243c-1.304-.4908-3.694-2.7-5.312-4.908l-2.941-4.016v-34.26l6.846-8.975h16.29l5.751 4.048c6.998 4.925 11.62 10.2 11.63 13.27l.0065 2.287h24.31l1.569 1.568c2.022 2.022 2.022 7.912 0 9.934l-1.569 1.568h-24.31v2.007c0 3.338-3.606 7.78-10.1 12.45l-6.163 4.426-13.63 1.5-2.371-.8924zm33.57-21.45c0-.3594-.2941-.6535-.6535-.6535s-.6535.2941-.6535.6535.2941.6536.6535.6536.6535-.2941.6535-.6536zm0-9.15c0-.3594-.2941-.6536-.6535-.6536s-.6535.2941-.6535.6536.2941.6535.6535.6535.6535-.2941.6535-.6535z" style="fill:#b0ca30;stroke-width:1.307"/><path id="path6882" d="m-116.8 238.6-3.423-4.488v-34.33l6.846-8.975h16.58l13.82 11.17 3.921 8.383 23.66.0566 1.569 1.568c2.022 2.022 2.022 7.912 0 9.934l-1.569 1.569h-24.31v1.86c0 2.586-6.097 9.569-12.24 14.02l-5.145 3.727h-16.29l-3.423-4.488zm5.114-10.35 1.837 2.425.0832-4.729 2.144 1.325-2.581-14.24h-2.44l.4584 5.757c.2521 3.166.0973 5.534-.344 5.261-.4413-.2728-1.111-4.775-1.487-10.01l-.6849-9.509 3.858-9.669 12.19-.9697-13.07-.426-5.642 8.077.2168 15.87.2168 15.87 2.595 3.921.8173-11.39 1.837 2.425zm5.842 7c0-.7189-.917-1.307-2.038-1.307h-2.038l.8078 1.307c.4443.7189 1.361 1.307 2.038 1.307s1.23-.5882 1.23-1.307zm3.921.6536c0-.3594-.2941-.6536-.6536-.6536-.3594 0-.6535.2941-.6535.6536 0 .3594.2941.6535.6535.6535.3594 0 .6536-.2941.6536-.6535zm-1.151-19.32-1.341-1.341 2.552-4.769-3.982 1.528v4.521c0 2.486.7352 5.806 1.634 7.376l1.634 2.855.844-8.828zm44.76 3.634-.7524-1.961-29.13.4261 14.38 1.625-6.535 1.514 22.79.356zm0-6.535.7524-1.961-22.79.356 6.535 1.514-14.38 1.625 29.13.4261zm-40.12-6.753-.8714-.8714-1.743 1.743h3.486zm-4.104-7.541c2.137.2845 6.239.8596 9.114 1.278l5.228.7605-6.535-5.332-13.2-.0582-1.568 1.569c-.8627.8627-1.569 2.06-1.569 2.66v1.092l4.645-2.486 3.886.5174z" style="fill:#2ac0ae;stroke-width:1.307"/><path id="path6880" d="m-116.8 238.6-3.423-4.488v-34.33l6.846-8.975h16.58l13.82 11.17 3.921 8.383 23.66.0566 1.569 1.568c2.022 2.022 2.022 7.912 0 9.934l-1.569 1.569h-24.31v1.86c0 2.586-6.097 9.569-12.24 14.02l-5.145 3.727h-16.29l-3.423-4.488zm5.114-10.35 1.837 2.425.0832-4.729 2.144 1.325-2.581-14.24h-2.44l.4584 5.757c.2521 3.166.0973 5.534-.344 5.261-.4413-.2728-1.111-4.775-1.487-10.01l-.6849-9.509 3.858-9.669 12.19-.9697-13.07-.426-5.642 8.077.2168 15.87.2168 15.87 2.595 3.921.8173-11.39 1.837 2.425zm5.842 7c0-.7189-.917-1.307-2.038-1.307h-2.038l.8078 1.307c.4443.7189 1.361 1.307 2.038 1.307s1.23-.5882 1.23-1.307zm3.921.6536c0-.3594-.2941-.6536-.6536-.6536-.3594 0-.6535.2941-.6535.6536 0 .3594.2941.6535.6535.6535.3594 0 .6536-.2941.6536-.6535zm-1.151-19.32-1.341-1.341 2.552-4.769-3.982 1.528v4.521c0 2.486.7352 5.806 1.634 7.376l1.634 2.855.844-8.828zm44.76 3.634-.7524-1.961h-28.48v1.089c0 2.416 2.332 2.832 15.86 2.832h14.12zm-17.46 0c0-.3594.2941-.6536.6535-.6536s.6535.2941.6535.6536-.2941.6535-.6535.6535-.6535-.2941-.6535-.6535zm21.37-5.259-.8504-2.216-2.229 3.983 1.701 4.432 2.229-3.983zm-3.893-1.319.7687-2.003-29.15.7387-1.084 3.268h28.69zm-17.48.0426c0-.3594.2941-.6535.6535-.6535s.6535.2941.6535.6535-.2941.6535-.6535.6535-.6535-.2941-.6535-.6535zm-22.66-6.753-.8714-.8714-1.743 1.743h3.486zm-4.104-7.541c2.137.2845 6.239.8596 9.114 1.278l5.228.7605-6.535-5.332-13.2-.0582-1.568 1.568c-.8627.8627-1.569 2.06-1.569 2.66v1.092l4.645-2.486 3.886.5173z" style="fill:#5ea535;stroke-width:1.307"/><path id="path6878" d="m-116.7 238.1-3.445-4.972v-32.4l6.891-9.944h14.82l5.837 3.702c6.444 4.087 12.97 11.16 12.97 14.04v1.86h24.89l2.978 6.535-2.978 6.535h-24.89v1.86c0 2.889-6.53 9.958-12.97 14.04l-5.837 3.702h-14.82zm12.93 1.172-6.494-.775-3.966-7.097 3.229-3.229v3.268c0 1.797.7058 3.974 1.569 4.836l1.568 1.569h12.72l2.855-1.47c3.707-1.909 8.649-6.416 10.21-9.313l1.233-2.287h-4.168l1.504 2.434-1.557.9625c-.8566.5294-4.339 1.011-7.74 1.071l-6.182.1081.6064-.9803c.3335-.5392 2.499-.9803 4.813-.9803h4.207l-.0716-20.91-8.65-.0014 1.404-2.271 10.61.5988 1.805 2.468c.9926 1.357 2.171 2.102 2.619 1.654 1.208-1.208-5.579-8.789-9.841-10.99l-3.701-1.914-6.274.02c-7.503.0239-9.13.8946-9.738 5.208l-.4602 3.268-1.798-2.76 3.169-6.389 13.01-1.55-14.84-.4107-5.418 6.888v33.28l5.418 6.888 14.84-.4107-6.494-.775zm-3.147-12.7-1.47-3.226v-6.389c0-3.514.5694-7.886 1.265-9.717l1.265-3.328 3.967 1.522-3.884 5.545v12.94l4.034 4.458-3.709 1.423zm-6.395-12.25v-4.575l.5978 2.287c.3288 1.258.3288 3.317 0 4.575l-.5978 2.287zm7.294-13.96c.9436-.3776 2.071-.3311 2.505.1032.4343.4343-.3377.7433-1.716.6865l-2.505-.1032zm47.77 19.85-.7524-1.961h-28.48v3.921h29.98zm3.909-5.259-.8504-2.216-2.229 3.983 1.701 4.432 2.229-3.983zm-3.909-1.276.7524-1.961h-29.98v3.921h28.48z" style="fill:#181a15;stroke-width:1.307"/></g><path id="path6894" d="m12.07 14.53v6.769h-.1319v-6.642h-.03692v-.8291h-1.53v.7106l-2.732 3.59h-.2532l-1.509-1.977h-.8439v-.3098h.6119l-.9969-1.303v-.7106h-2.606v1.494h.6277v7.526h-.4958v1.786h.4958v2.524h1.978v-3.289h-.5011v-1.941h.5011v-3.881l.6119.8018c.48.6195.96 1.248 1.435 1.877.2268.3007.4589.6013.691.902h.2532c.2532-.328.4589-.6013.6171-.8109.1635-.2096.2848-.3735.3692-.492.0844-.1184.1424-.1913.1688-.2369.03165-.04556.0422-.06378.03165-.05467-.01055.0091-.02637.02733-.05802.06378-.05802.07289-.1002.1276-.1266.1549-.02637.02733-.03692.04556-.03692.04556s.01055-.01822.02637-.03644c.0211-.02733.0422-.05467.06857-.082.02109-.02733.04747-.05466.06857-.082.153-.1822.4853-.6013 1.007-1.248h-.01055l.6066-.8018v3.881h.5064v1.941h-.5064v3.289h1.983v-4.565h.4958v-1.786h-.4958v-5.485h.6277v-1.494h-.9125zm-8.983 6.769h-.1319v-6.769h.1319z" style="fill:#d5faff;paint-order:markers stroke fill;shape-inside:url(#rect6892);stroke-opacity:.75;stroke:#000000;white-space:pre"/><path id="path6896" d="m22.6 23.04-2.621-6.933v-.03644h-1.06v.03644l-1.197 3.161h-1.324l.327.7015h.7332l-.4325 1.139h-.2532l-1.661 4.309h.2848l-.6593 1.74h1.619l.8703-2.014h-.422l1.545-4.027.4905-.01822.6066-1.604 1.319 3.544zm-1.598.6378.03165.082h-.3376v.8746h.6646l.9389 2.524h1.862l-1.319-3.48z" style="fill:#d5faff;paint-order:markers stroke fill;shape-inside:url(#rect6892);stroke-opacity:.75;stroke:#000000;white-space:pre"/><path id="path6898" d="m25.93 18.73h.5855v2.442h-.596v3.025c0 .4738.05802.902.1741 1.312.1213.4009.2796.738.48 1.011h5.966l.1899.246h-5.955c.2637.2642.5486.4009.865.4009h5.48v-2.196h-4.863c-.1635 0-.3059-.1002-.4272-.3098-.116-.2004-.1793-.4464-.1793-.738v-2.423h.5222v-2.979c.02637 0 .05802-.0091.0844-.0091h4.863v-2.423h-5.48c-.4431 0-.8228.2551-1.139.7562-.3218.5011-.5116 1.13-.5697 1.886z" style="fill:#d5faff;paint-order:markers stroke fill;shape-inside:url(#rect6892);stroke-opacity:.75;stroke:#000000;white-space:pre"/><path id="path6900" d="m43.22 16.11h-1.646v5.002h-4.647v-5.002h-1.646v6.687h-.4114v1.485h.4114v2.897h1.646v-2.742h-.4167v-1.348h5.396v-.2551h.0844v1.604h-.4167v2.742h1.646v-8.81h.5169v-1.221h-.5169zm-7.585 6.195h-.116v-5.621h.116zm7.347 0h-.1108v-5.621h.1108z" style="fill:#d5faff;paint-order:markers stroke fill;shape-inside:url(#rect6892);stroke-opacity:.75;stroke:#000000;white-space:pre"/><path id="path6902" d="m45.91 22.8h-.4167v1.485h.4167v2.906h1.646v-2.742h-.4167v-1.604h.4167v-6.742h-1.646zm.2374-6.113h.1108v5.631h-.1108z" style="fill:#d5faff;paint-order:markers stroke fill;shape-inside:url(#rect6892);stroke-opacity:.75;stroke:#000000;white-space:pre"/><path id="path6904" d="m51.37 16.72v-.5922h-1.646v6.678h-.4114v1.476h.4114v2.897h1.646v-2.733h-.4167v-1.604h.4167v-3.216l.5064.6651h2.21zm5.148.4555h-.5169v1.212h.5169v4.419h-.4114v.1367l-1.756-2.314h-2.215l1.83 2.396h-.2954l.7859 1.002h.269l1.793 2.351v.8018h1.646v-2.733h-.4167v-1.604h.4167v-6.715h-1.646z" style="fill:#d5faff;paint-order:markers stroke fill;shape-inside:url(#rect6892);stroke-opacity:.75;stroke:#000000;white-space:pre"/><path id="path6906" d="m63.04 15.72h-1.229v.3918h-1.582v5.576h-.3112v2.624h.3112v2.843h6.519v-2.451h-4.926v-.5284h-.2954v-1.604h4.99v-2.387h-4.694v-1.722h4.926v-2.351h-3.708z" style="fill:#d5faff;paint-order:markers stroke fill;shape-inside:url(#rect6892);stroke-opacity:.75;stroke:#000000;white-space:pre"/><path id="path6908" d="m72.32 19.04h2.02v-2.26h.08967c.0422-.0091.09494-.0091.153-.0091h.1582.0844 5.976v-2.906h-.1371v-.3098h-1.519v.3098h-5.058c-.5327 0-.9863.3007-1.371.902-.385.6013-.6119 1.358-.6804 2.269h.2848zm8.482.8655h-.02637v-.6013h-.3692v.5922h-3.613v2.36h2.036v2.26h-4.003c-.2004 0-.3692-.1184-.5116-.3644-.1424-.246-.211-.5467-.211-.8929v-2.906h.2374v-1.02h-2.02v.6287h-.2954v3.626c0 .5649.06857 1.084.211 1.567.1371.4829.327.8929.5697 1.221h6.024v.2915h-5.781c.3165.3189.6593.4829 1.039.4829h4.742v.0091h1.973v-3.48h.4958v-1.786h-.4958z" style="fill:#d5faff;paint-order:markers stroke fill;shape-inside:url(#rect6892);stroke-opacity:.75;stroke:#000000;white-space:pre"/><path id="path6910" d="m89.99 16.22h-1.572v6.423h.4009v1.531h-.4009v.7289h-3.36v-8.683h-1.276v.6469h-.3165v4.173h-.4167v3.972h.4167v1.376h-.3428v.7835h4.019v-.6833h.2057v.6833h2.637v-.3918h.005v-2.761h.3903v-1.421h-.3903zm-.2268 5.922h-.1055v-5.366h.1055z" style="fill:#d5faff;paint-order:markers stroke fill;shape-inside:url(#rect6892);stroke-opacity:.75;stroke:#000000;white-space:pre"/><path id="path6912" d="m94.2 16.72v-.5922h-1.646v6.678h-.4114v1.476h.4114v2.897h1.646v-2.733h-.4167v-1.604h.4167v-3.216l.5064.6651h2.21zm5.148.4555h-.5169v1.212h.5169v4.419h-.4114v.1367l-1.756-2.314h-2.215l1.83 2.396h-.2954l.7859 1.002h.269l1.793 2.351v.8018h1.646v-2.733h-.4167v-1.604h.4167v-6.715h-1.646z" style="fill:#d5faff;paint-order:markers stroke fill;shape-inside:url(#rect6892);stroke-opacity:.75;stroke:#000000;white-space:pre"/></g></g></svg>
