<?xml version="1.0" encoding="UTF-8" standalone="no"?>
<!-- Created with Inkscape (http://www.inkscape.org/) -->

<svg
   width="100"
   height="100"
   viewBox="0 0 100 100"
   version="1.1"
   id="svg3028"
   inkscape:version="1.2.2 (732a01da63, 2022-12-09)"
   sodipodi:docname="deckMg.svg"
   xmlns:inkscape="http://www.inkscape.org/namespaces/inkscape"
   xmlns:sodipodi="http://sodipodi.sourceforge.net/DTD/sodipodi-0.dtd"
   xmlns="http://www.w3.org/2000/svg"
   xmlns:svg="http://www.w3.org/2000/svg">
  <sodipodi:namedview
     id="namedview3030"
     pagecolor="#ffffff"
     bordercolor="#666666"
     borderopacity="1.0"
     inkscape:showpageshadow="2"
     inkscape:pageopacity="0.0"
     inkscape:pagecheckerboard="0"
     inkscape:deskcolor="#d1d1d1"
     inkscape:document-units="mm"
     showgrid="false"
     inkscape:zoom="1.104894"
     inkscape:cx="129.42418"
     inkscape:cy="-68.784877"
     inkscape:window-width="1600"
     inkscape:window-height="1041"
     inkscape:window-x="1100"
     inkscape:window-y="0"
     inkscape:window-maximized="0"
     inkscape:current-layer="layer1" />
  <defs
     id="defs3025">
    <filter
       inkscape:collect="always"
       style="color-interpolation-filters:sRGB"
       id="filter2272"
       x="-0.015854199"
       y="-0.015854199"
       width="1.0317084"
       height="1.0317084">
      <feGaussianBlur
         inkscape:collect="always"
         stdDeviation="0.56826707"
         id="feGaussianBlur2270" />
    </filter>
  </defs>
  <g
     inkscape:label="Livello 1"
     inkscape:groupmode="layer"
     id="layer1">
    <g
       id="g7471"
       transform="matrix(0.77271586,0,0,0.77271579,10.191108,11.674673)">
      <path
         sodipodi:type="star"
         style="display:inline;mix-blend-mode:normal;fill:#abc3d1;fill-opacity:1;stroke:#ef4b00;stroke-width:2.95311;stroke-linecap:round;stroke-linejoin:round;stroke-miterlimit:5.1;stroke-dasharray:none;stroke-opacity:0.336478;paint-order:markers fill stroke;filter:url(#filter2272);stop-color:#000000"
         id="path6780"
         inkscape:flatsided="true"
         sodipodi:sides="6"
         sodipodi:cx="17.196218"
         sodipodi:cy="20.816475"
         sodipodi:r1="93.291878"
         sodipodi:r2="84.053078"
         sodipodi:arg1="0.26179939"
         sodipodi:arg2="0.78539817"
         inkscape:rounded="0.1"
         inkscape:randomized="0"
         d="m 107.30925,44.96219 c -2.41457,9.011303 -56.956014,63.55275 -65.967317,65.96732 c -9.011303,2.41457 -83.516302,-17.548984 -90.113034,-24.145716 c -6.596732,-6.596732 -26.560286,-81.1017306 -24.145715,-90.113034 c 2.414572,-9.011303 56.956017,-63.552748 65.96732,-65.967319 c 9.0113034,-2.414572 83.516302,17.548983 90.113034,24.145715 c 6.596732,6.596732 26.560282,81.10173 24.145712,90.113034 z"
         inkscape:transform-center-x="-0.16541255"
         inkscape:transform-center-y="-2.6086635"
         transform="matrix(0.64135864,0.17185151,-0.17185151,0.64135864,44.066551,33.2922)" />
      <g
         id="g6876"
         transform="translate(137.51299,-154.54652)"
         style="display:inline">
        <path
           style="fill:#b0ca30;stroke-width:1.30709"
           d="m -111.93623,242.97681 c -1.30393,-0.49078 -3.69421,-2.69954 -5.31173,-4.90834 l -2.94094,-4.016 v -17.13226 v -17.13227 l 3.42285,-4.48759 l 3.42285,-4.48759 h 8.14481 h 8.144817 l 5.751232,4.04811 c 6.997531,4.92535 11.617909,10.19911 11.626627,13.27079 l 0.0065,2.2874 h 12.155905 h 12.155905 l 1.568504,1.5685 c 2.021956,2.02196 2.021956,7.9119 0,9.93386 l -1.568504,1.5685 h -12.155905 h -12.155905 v 2.00662 c 0,3.33846 -3.605521,7.78018 -10.103421,12.44661 l -6.162726,4.42574 l -6.815039,0.75013 l -6.81503,0.75014 l -2.37079,-0.89235 z m 33.574095,-21.44752 c 0,-0.35945 -0.294094,-0.65354 -0.653543,-0.65354 c -0.359449,0 -0.653543,0.29409 -0.653543,0.65354 c 0,0.35945 0.294094,0.65355 0.653543,0.65355 c 0.359449,0 0.653543,-0.2941 0.653543,-0.65355 z m 0,-9.1496 c 0,-0.35945 -0.294094,-0.65355 -0.653543,-0.65355 c -0.359449,0 -0.653543,0.2941 -0.653543,0.65355 c 0,0.35945 0.294094,0.65354 0.653543,0.65354 c 0.359449,0 0.653543,-0.29409 0.653543,-0.65354 z"
           id="path6884" />
        <path
           style="fill:#2ac0ae;stroke-width:1.30709"
           d="m -116.76605,238.60863 l -3.42285,-4.48759 v -17.16655 v -17.16655 l 3.42285,-4.48759 l 3.42285,-4.48759 h 8.29196 h 8.291965 l 6.911168,5.58361 l 6.911169,5.5836 l 1.96063,4.19126 l 1.96063,4.19125 l 11.829133,0.0283 l 11.829134,0.0283 l 1.568504,1.5685 c 2.021955,2.02196 2.021955,7.91191 0,9.93386 l -1.568504,1.56851 h -12.155905 h -12.155905 v 1.86034 c 0,2.58604 -6.096992,9.56943 -12.239801,14.01926 l -5.144551,3.72669 h -8.144817 h -8.14481 l -3.42285,-4.48759 z m 5.11353,-10.35496 l 1.83717,2.42523 l 0.0416,-2.36454 l 0.0416,-2.36454 l 1.07216,0.66263 l 1.07216,0.66263 l -1.29071,-7.12093 l -1.29072,-7.12092 h -1.22015 h -1.22014 l 0.45838,5.75713 c 0.25211,3.16642 0.0973,5.53396 -0.34395,5.2612 c -0.44128,-0.27276 -1.11055,-4.77508 -1.48727,-10.00516 l -0.68493,-9.50923 l 1.92919,-4.83466 l 1.92919,-4.83466 l 6.09351,-0.48486 l 6.093514,-0.48486 l -6.535434,-0.21301 l -6.53543,-0.21301 l -2.82123,4.03852 l -2.82123,4.03853 l 0.21676,15.87196 l 0.21677,15.87195 l 1.29738,1.96063 l 1.29738,1.96063 l 0.40866,-5.69295 l 0.40866,-5.69295 l 1.83717,2.42524 z m 5.84157,7.00003 c 0,-0.7189 -0.917,-1.30708 -2.03777,-1.30708 h -2.03777 l 0.80782,1.30708 c 0.4443,0.7189 1.3613,1.30709 2.03777,1.30709 c 0.67647,0 1.22995,-0.58819 1.22995,-1.30709 z m 3.92126,0.65355 c 0,-0.35945 -0.2941,-0.65355 -0.65355,-0.65355 c -0.35944,0 -0.65354,0.2941 -0.65354,0.65355 c 0,0.35944 0.2941,0.65354 0.65354,0.65354 c 0.35945,0 0.65355,-0.2941 0.65355,-0.65354 z m -1.1507,-19.31921 l -1.34112,-1.34112 l 1.27615,-2.38451 l 1.27616,-2.38452 l -1.99088,0.76397 l -1.99087,0.76397 v 4.52089 c 0,2.48649 0.73523,5.80565 1.63386,7.3759 l 1.63385,2.85502 l 0.42199,-4.41424 l 0.42198,-4.41424 z m 44.75723,3.63417 l -0.752364,-1.96063 l -14.56488,0.21305 l -14.56488,0.21305 l 7.188976,0.81274 l 7.188976,0.81274 l -3.267716,0.75683 l -3.267717,0.75684 l 11.395985,0.178 l 11.395984,0.17801 z m 0,-6.53544 l 0.752364,-1.96063 l -11.395984,0.17801 l -11.395985,0.178 l 3.267717,0.75684 l 3.267716,0.75683 l -7.188976,0.81274 l -7.188976,0.81274 l 14.56488,0.21305 l 14.56488,0.21305 z m -40.120968,-6.75328 l -0.871392,-0.87139 l -0.87139,0.87139 l -0.87139,0.87139 h 1.74278 h 1.742782 z m -4.103842,-7.54082 c 2.13729,0.28454 6.238749,0.85955 9.11434,1.27781 l 5.228346,0.76047 l -3.267716,-2.66586 l -3.267717,-2.66586 l -6.600783,-0.0291 l -6.60079,-0.0291 l -1.5685,1.56851 c -0.86268,0.86268 -1.56851,2.05975 -1.56851,2.66016 v 1.09166 l 2.32267,-1.24306 l 2.32266,-1.24305 l 3.886,0.51735 z"
           id="path6882" />
        <path
           style="fill:#5ea535;stroke-width:1.30709"
           d="m -116.76605,238.60863 l -3.42285,-4.48759 v -17.16655 v -17.16655 l 3.42285,-4.48759 l 3.42285,-4.48759 h 8.29196 h 8.291965 l 6.911168,5.58361 l 6.911169,5.5836 l 1.96063,4.19126 l 1.96063,4.19125 l 11.829133,0.0283 l 11.829134,0.0283 l 1.568504,1.5685 c 2.021955,2.02196 2.021955,7.91191 0,9.93386 l -1.568504,1.56851 h -12.155905 h -12.155905 v 1.86034 c 0,2.58604 -6.096992,9.56943 -12.239801,14.01926 l -5.144551,3.72669 h -8.144817 h -8.14481 l -3.42285,-4.48759 z m 5.11353,-10.35496 l 1.83717,2.42523 l 0.0416,-2.36454 l 0.0416,-2.36454 l 1.07216,0.66263 l 1.07216,0.66263 l -1.29071,-7.12093 l -1.29072,-7.12092 h -1.22015 h -1.22014 l 0.45838,5.75713 c 0.25211,3.16642 0.0973,5.53396 -0.34395,5.2612 c -0.44128,-0.27276 -1.11055,-4.77508 -1.48727,-10.00516 l -0.68493,-9.50923 l 1.92919,-4.83466 l 1.92919,-4.83466 l 6.09351,-0.48486 l 6.093514,-0.48486 l -6.535434,-0.21301 l -6.53543,-0.21301 l -2.82123,4.03852 l -2.82123,4.03853 l 0.21676,15.87196 l 0.21677,15.87195 l 1.29738,1.96063 l 1.29738,1.96063 l 0.40866,-5.69295 l 0.40866,-5.69295 l 1.83717,2.42524 z m 5.84157,7.00003 c 0,-0.7189 -0.917,-1.30708 -2.03777,-1.30708 h -2.03777 l 0.80782,1.30708 c 0.4443,0.7189 1.3613,1.30709 2.03777,1.30709 c 0.67647,0 1.22995,-0.58819 1.22995,-1.30709 z m 3.92126,0.65355 c 0,-0.35945 -0.2941,-0.65355 -0.65355,-0.65355 c -0.35944,0 -0.65354,0.2941 -0.65354,0.65355 c 0,0.35944 0.2941,0.65354 0.65354,0.65354 c 0.35945,0 0.65355,-0.2941 0.65355,-0.65354 z m -1.1507,-19.31921 l -1.34112,-1.34112 l 1.27615,-2.38451 l 1.27616,-2.38452 l -1.99088,0.76397 l -1.99087,0.76397 v 4.52089 c 0,2.48649 0.73523,5.80565 1.63386,7.3759 l 1.63385,2.85502 l 0.42199,-4.41424 l 0.42198,-4.41424 z m 44.75723,3.63417 l -0.752364,-1.96063 h -14.238108 h -14.238109 v 1.08923 c 0,2.41568 2.331895,2.83203 15.861864,2.83203 h 14.119081 z m -17.464802,0 c 0,-0.35945 0.294095,-0.65355 0.653544,-0.65355 c 0.359449,0 0.653543,0.2941 0.653543,0.65355 c 0,0.35945 -0.294094,0.65354 -0.653543,0.65354 c -0.359449,0 -0.653544,-0.29409 -0.653544,-0.65354 z m 21.374267,-5.25909 l -0.850372,-2.21603 l -1.114425,1.99136 l -1.114426,1.99137 l 0.850374,2.21604 l 0.850372,2.21603 l 1.114424,-1.99136 l 1.114426,-1.99137 z m -3.893126,-1.31892 l 0.768703,-2.00321 l -14.573537,0.36935 l -14.573538,0.36935 l -0.542198,1.63386 l -0.542198,1.63385 h 14.347033 h 14.347032 z m -17.481141,0.0426 c 0,-0.35945 0.294095,-0.65354 0.653544,-0.65354 c 0.359449,0 0.653543,0.29409 0.653543,0.65354 c 0,0.35945 -0.294094,0.65354 -0.653543,0.65354 c -0.359449,0 -0.653544,-0.29409 -0.653544,-0.65354 z m -22.656166,-6.75328 l -0.871392,-0.87139 l -0.87139,0.87139 l -0.87139,0.87139 h 1.74278 h 1.742782 z m -4.103842,-7.54083 c 2.13729,0.28454 6.238749,0.85956 9.11434,1.27781 l 5.228346,0.76047 l -3.267716,-2.66585 l -3.267717,-2.66586 l -6.600783,-0.0291 l -6.60079,-0.0291 l -1.5685,1.5685 c -0.86268,0.86268 -1.56851,2.05975 -1.56851,2.66016 v 1.09166 l 2.32267,-1.24305 l 2.32266,-1.24305 l 3.886,0.51734 z"
           id="path6880" />
        <path
           style="fill:#181a15;stroke-width:1.30709"
           d="m -116.74342,238.12439 l -3.44548,-4.97183 v -16.19807 v -16.19807 l 3.44548,-4.97183 l 3.44548,-4.97183 h 7.40885 h 7.408853 l 5.836712,3.70153 c 6.444357,4.08689 12.974304,11.15543 12.974304,14.04442 v 1.86035 h 12.445345 h 12.445345 l 1.488871,3.26771 l 1.488871,3.26772 l -1.488871,3.26772 l -1.488871,3.26771 h -12.445345 h -12.445345 v 1.86035 c 0,2.88899 -6.529947,9.95753 -12.974304,14.04442 l -5.836712,3.70153 h -7.408853 h -7.40885 z m 12.93469,1.17199 l -6.49384,-0.77496 l -1.98307,-3.54829 l -1.98307,-3.54828 l 1.6147,-1.61471 l 1.61471,-1.61471 v 3.26772 c 0,1.79724 0.70583,3.97354 1.56851,4.83622 l 1.5685,1.56851 h 6.35994 h 6.35995 l 2.855014,-1.47043 c 3.707493,-1.90948 8.648564,-6.41647 10.209999,-9.31304 l 1.233056,-2.2874 h -2.083758 h -2.083759 l 0.752005,1.21677 l 0.752004,1.21677 l -1.557367,0.9625 c -0.856551,0.52938 -4.339352,1.01117 -7.739559,1.07063 l -6.182193,0.10813 l 0.606404,-0.98032 c 0.333521,-0.53917 2.499412,-0.98031 4.81309,-0.98031 h 4.206689 l -0.0358,-10.456 l -0.0358,-10.45599 l -4.325172,-7e-4 l -4.325171,-7e-4 l 0.701833,-1.13559 l 0.701833,-1.13559 l 5.306319,0.2994 l 5.306318,0.29941 l 1.804639,2.46799 c 0.992552,1.35739 2.170999,2.10163 2.61877,1.65386 c 1.207616,-1.20762 -5.579233,-8.78875 -9.840784,-10.99249 l -3.700655,-1.91368 l -6.273575,0.02 c -7.50267,0.0239 -9.13043,0.89455 -9.7379,5.20833 l -0.46016,3.26772 l -0.89899,-1.38007 l -0.89899,-1.38006 l 1.58473,-3.19474 l 1.58473,-3.19474 l 6.50485,-0.77496 l 6.504856,-0.77497 l -7.420886,-0.20535 l -7.42088,-0.20535 l -2.70904,3.44399 l -2.70904,3.44399 v 16.63958 v 16.63958 l 2.70904,3.44399 l 2.70904,3.44399 l 7.42088,-0.20535 l 7.420886,-0.20535 l -6.493846,-0.77496 z m -3.14664,-12.70369 l -1.46976,-3.22577 v -6.38884 c 0,-3.51386 0.56936,-7.88637 1.26525,-9.71668 l 1.26524,-3.32784 l 1.98369,0.76121 l 1.98369,0.76121 l -1.94185,2.77237 l -1.94184,2.77238 v 6.46845 v 6.46844 l 2.01706,2.22883 l 2.01705,2.22882 l -1.85438,0.7116 l -1.85439,0.71159 z m -6.39485,-12.25237 v -4.57481 l 0.59776,2.28741 c 0.32876,1.25807 0.32876,3.31673 0,4.5748 l -0.59776,2.2874 z m 7.29419,-13.96376 c 0.94355,-0.37758 2.07091,-0.33114 2.50525,0.1032 c 0.43433,0.43433 -0.33767,0.74326 -1.71555,0.6865 l -2.50525,-0.10319 z m 47.77287,19.84565 l -0.752364,-1.96063 h -14.238108 h -14.238109 v 1.96063 v 1.96063 h 14.990473 h 14.990472 z m 3.909465,-5.25909 l -0.850372,-2.21603 l -1.114425,1.99136 l -1.114426,1.99137 l 0.850374,2.21604 l 0.850372,2.21603 l 1.114424,-1.99136 l 1.114426,-1.99137 z m -3.909465,-1.27635 l 0.752364,-1.96063 h -14.990472 h -14.990473 v 1.96063 v 1.96063 h 14.238109 h 14.238108 z"
           id="path6878" />
      </g>
      <path
         d="m 12.072996,14.531932 v 0.127552 v 6.641844 h -0.131865 v -6.641844 h -0.03692 v -0.829091 h -1.52963 v 0.71065 l -2.732235,3.589693 h -0.25318 l -1.508532,-1.977064 h -0.843934 v -0.309772 h 0.611853 l -0.996898,-1.302857 v -0.71065 h -2.6056441 v 1.494186 h 0.627675 v 7.5256 h -0.495812 v 1.785736 h 0.495812 v 2.523718 h 1.9779691 v -3.289033 h -0.501085 v -1.940621 h 0.501085 v -3.881241 l 0.611852,0.801759 c 0.479988,0.619541 0.959975,1.248192 1.434688,1.876844 c 0.226808,0.30066 0.458889,0.601319 0.690971,0.901979 h 0.25318 c 0.253179,-0.327992 0.458889,-0.601319 0.617126,-0.81087 c 0.163512,-0.20955 0.284828,-0.373547 0.369221,-0.491988 c 0.0844,-0.118442 0.142414,-0.191329 0.168787,-0.236883 c 0.03165,-0.04556 0.0422,-0.06378 0.03165,-0.05467 c -0.01055,0.0091 -0.02637,0.02733 -0.05802,0.06378 c -0.05802,0.07289 -0.100217,0.127552 -0.12659,0.154886 c -0.02637,0.02733 -0.03692,0.04556 -0.03692,0.04556 c 0,0 0.01055,-0.01822 0.02637,-0.03644 c 0.0211,-0.02733 0.0422,-0.05467 0.06857,-0.082 c 0.02109,-0.02733 0.04747,-0.05466 0.06857,-0.082 c 0.152963,-0.182218 0.485262,-0.601319 1.0074451,-1.248192 h -0.01055 l 0.6065779,-0.801759 v 3.88124 h 0.50636 v 1.940621 h -0.50636 v 3.289033 h 1.983245 v -4.564558 h 0.49581 v -1.785735 h -0.49581 v -5.48476 h 0.627675 v -1.494186 h -0.912503 z m -8.982619,6.769396 h -0.1318651 v -6.769396 h 0.1318651 z"
         id="path6894"
         style="font-size:10.8104px;line-height:1.25;font-family:'Glitch Inside';-inkscape-font-specification:'Glitch Inside';text-align:center;letter-spacing:1.28062px;word-spacing:-0.873149px;white-space:pre;shape-inside:url(#rect6892);display:inline;fill:#d5faff;stroke:#000000;stroke-width:0.999999;stroke-opacity:0.75;paint-order:markers stroke fill" />
      <path
         d="m 22.604286,23.041508 l -2.621469,-6.93339 v -0.03644 h -1.060192 v 0.03644 l -1.197331,3.16148 h -1.323922 l 0.327024,0.701539 h 0.733168 l -0.432516,1.138862 h -0.25318 l -1.661495,4.309454 h 0.284828 l -0.659323,1.74018 h 1.619297 l 0.870307,-2.013508 h -0.421967 l 1.545454,-4.027015 l 0.490536,-0.01822 l 0.606579,-1.603517 l 1.318646,3.544137 z m -1.5982,0.637763 l 0.03165,0.082 h -0.337574 v 0.874645 h 0.664598 l 0.938876,2.523718 h 1.861929 l -1.318646,-3.480362 z"
         id="path6896"
         style="font-size:10.8104px;line-height:1.25;font-family:'Glitch Inside';-inkscape-font-specification:'Glitch Inside';text-align:center;letter-spacing:1.28062px;word-spacing:-0.873149px;white-space:pre;shape-inside:url(#rect6892);display:inline;fill:#d5faff;stroke:#000000;stroke-width:0.999999;stroke-opacity:0.75;paint-order:markers stroke fill" />
      <path
         d="m 25.930492,18.732056 h 0.58548 v 2.441719 h -0.596029 v 3.024818 c 0,0.473765 0.05802,0.901979 0.174061,1.311968 c 0.121316,0.40088 0.279554,0.737983 0.479988,1.011309 h 5.965556 l 0.189886,0.245995 h -5.955008 c 0.26373,0.264216 0.548557,0.40088 0.865032,0.40088 h 5.480295 v -2.195727 h -4.863168 c -0.163512,0 -0.305926,-0.100214 -0.427242,-0.30977 c -0.11604,-0.200439 -0.179336,-0.446433 -0.179336,-0.737983 v -2.423497 h 0.522184 v -2.979263 c 0.02637,0 0.05802,-0.0091 0.0844,-0.0091 h 4.863168 v -2.423498 h -5.480295 c -0.443065,0 -0.822835,0.255106 -1.13931,0.756205 c -0.32175,0.501099 -0.511635,1.129751 -0.569656,1.885955 z"
         id="path6898"
         style="font-size:10.8104px;line-height:1.25;font-family:'Glitch Inside';-inkscape-font-specification:'Glitch Inside';text-align:center;letter-spacing:1.28062px;word-spacing:-0.873149px;white-space:pre;shape-inside:url(#rect6892);display:inline;fill:#d5faff;stroke:#000000;stroke-width:0.999999;stroke-opacity:0.75;paint-order:markers stroke fill" />
      <path
         d="m 43.223801,16.108118 h -1.645671 v 5.001881 h -4.64691 v -5.001881 h -1.645671 v 6.687396 h -0.411417 v 1.485076 h 0.411417 v 2.897265 h 1.645671 v -2.742379 h -0.416693 v -1.348412 h 5.395901 v -0.255106 h 0.0844 v 1.603518 h -0.416692 v 2.742379 h 1.645671 v -8.810235 h 0.516908 v -1.22086 h -0.516908 z m -7.584855,6.195408 h -0.116041 v -5.621422 h 0.116041 z m 7.347498,0 h -0.110766 v -5.621422 h 0.110766 z"
         id="path6900"
         style="font-size:10.8104px;line-height:1.25;font-family:'Glitch Inside';-inkscape-font-specification:'Glitch Inside';text-align:center;letter-spacing:1.28062px;word-spacing:-0.873149px;white-space:pre;shape-inside:url(#rect6892);display:inline;fill:#d5faff;stroke:#000000;stroke-width:0.999999;stroke-opacity:0.75;paint-order:markers stroke fill" />
      <path
         d="m 45.911782,22.795514 h -0.416693 v 1.485076 h 0.416693 v 2.906376 h 1.645671 v -2.742379 h -0.416693 v -1.603518 h 0.416693 v -6.742062 h -1.645671 z m 0.237356,-6.11341 h 0.110766 v 5.630533 h -0.110766 z"
         id="path6902"
         style="font-size:10.8104px;line-height:1.25;font-family:'Glitch Inside';-inkscape-font-specification:'Glitch Inside';text-align:center;letter-spacing:1.28062px;word-spacing:-0.873149px;white-space:pre;shape-inside:url(#rect6892);display:inline;fill:#d5faff;stroke:#000000;stroke-width:0.999999;stroke-opacity:0.75;paint-order:markers stroke fill" />
      <path
         d="m 51.368922,16.718548 v -0.592208 h -1.645671 v 6.678286 h -0.411417 v 1.475964 h 0.411417 v 2.897265 h 1.645671 v -2.733268 h -0.416692 v -1.603518 h 0.416692 v -3.216146 l 0.506361,0.665095 h 2.210051 z m 5.147996,0.455545 h -0.51691 v 1.211749 h 0.51691 v 4.418784 h -0.411418 v 0.136667 l -1.756436,-2.314166 h -2.215327 l 1.830281,2.396165 h -0.295377 l 0.785914,1.002199 h 0.269004 l 1.793359,2.350611 v 0.801758 h 1.64567 v -2.733268 h -0.416691 v -1.603517 h 0.416691 v -6.71473 h -1.64567 z"
         id="path6904"
         style="font-size:10.8104px;line-height:1.25;font-family:'Glitch Inside';-inkscape-font-specification:'Glitch Inside';text-align:center;letter-spacing:1.28062px;word-spacing:-0.873149px;white-space:pre;shape-inside:url(#rect6892);display:inline;fill:#d5faff;stroke:#000000;stroke-width:0.999999;stroke-opacity:0.75;paint-order:markers stroke fill" />
      <path
         d="m 63.03952,15.716348 h -1.228978 v 0.39177 h -1.582376 v 5.575867 h -0.3112 v 2.623938 h 0.3112 v 2.8426 h 6.519388 v -2.450831 h -4.926463 v -0.528432 h -0.295377 v -1.603518 h 4.989759 v -2.387054 h -4.694382 v -1.721959 h 4.926463 v -2.350611 h -3.708034 z"
         id="path6906"
         style="font-size:10.8104px;line-height:1.25;font-family:'Glitch Inside';-inkscape-font-specification:'Glitch Inside';text-align:center;letter-spacing:1.28062px;word-spacing:-0.873149px;white-space:pre;shape-inside:url(#rect6892);display:inline;fill:#d5faff;stroke:#000000;stroke-width:0.999999;stroke-opacity:0.75;paint-order:markers stroke fill" />
      <path
         d="m 72.321754,19.041826 h 2.020167 v -2.259502 c 0.01055,0 0.0422,0 0.08967,0 c 0.0422,-0.0091 0.09494,-0.0091 0.152962,-0.0091 c 0.05802,0 0.110767,0 0.158239,0 c 0.04748,0 0.07912,0 0.0844,0 h 5.976105 v -2.906377 h -0.137138 v -0.30977 h -1.519081 v 0.30977 h -5.058328 c -0.532733,0 -0.986347,0.30066 -1.371392,0.901979 c -0.385046,0.601319 -0.611853,1.357524 -0.680423,2.268614 h 0.284828 z m 8.481534,0.865535 h -0.02637 v -0.601319 h -0.369221 v 0.592208 h -3.613091 v 2.359722 h 2.03599 v 2.259502 h -4.003411 c -0.200434,0 -0.369221,-0.11844 -0.511635,-0.364436 c -0.142414,-0.245994 -0.210983,-0.546654 -0.210983,-0.892867 v -2.906376 h 0.237356 v -1.02042 h -2.020167 v 0.628651 h -0.295376 v 3.626136 c 0,0.564876 0.06857,1.084196 0.210983,1.567075 c 0.137139,0.482877 0.327025,0.892866 0.569656,1.220859 h 6.023577 v 0.291548 h -5.780947 c 0.316475,0.318881 0.659324,0.482879 1.039094,0.482879 h 4.741853 v 0.0091 h 1.972694 v -3.480362 h 0.495812 v -1.785735 h -0.495812 z"
         id="path6908"
         style="font-size:10.8104px;line-height:1.25;font-family:'Glitch Inside';-inkscape-font-specification:'Glitch Inside';text-align:center;letter-spacing:1.28062px;word-spacing:-0.873149px;white-space:pre;shape-inside:url(#rect6892);display:inline;fill:#d5faff;stroke:#000000;stroke-width:0.999999;stroke-opacity:0.75;paint-order:markers stroke fill" />
      <path
         d="m 89.994843,16.217449 h -1.571829 v 6.42318 h 0.400872 v 1.530631 h -0.400872 v 0.728871 h -3.359909 v -8.682682 h -1.276451 v 0.646873 h -0.316476 v 4.17279 h -0.416691 v 3.972351 h 0.416691 v 1.375743 h -0.342847 v 0.783539 h 4.019235 v -0.683318 h 0.205709 v 0.683318 h 2.637292 v -0.391769 h 0.005 v -2.760602 h 0.39032 v -1.421299 h -0.39032 z m -0.226811,5.922081 h -0.105491 v -5.366317 h 0.105491 z"
         id="path6910"
         style="font-size:10.8104px;line-height:1.25;font-family:'Glitch Inside';-inkscape-font-specification:'Glitch Inside';text-align:center;letter-spacing:1.28062px;word-spacing:-0.873149px;white-space:pre;shape-inside:url(#rect6892);display:inline;fill:#d5faff;stroke:#000000;stroke-width:0.999999;stroke-opacity:0.75;paint-order:markers stroke fill" />
      <path
         d="m 94.196623,16.718548 v -0.592208 h -1.645664 v 6.678286 h -0.411424 v 1.475964 h 0.411424 v 2.897265 h 1.645664 v -2.733268 h -0.41669 v -1.603518 h 0.41669 v -3.216146 l 0.506362,0.665095 h 2.210054 z m 5.147994,0.455545 h -0.516905 v 1.211749 h 0.516905 v 4.418784 h -0.411414 v 0.136667 l -1.756441,-2.314166 h -2.215319 l 1.830276,2.396165 h -0.29537 l 0.785905,1.002199 h 0.269009 l 1.793354,2.350611 v 0.801758 h 1.645673 v -2.733268 h -0.41669 v -1.603517 h 0.41669 v -6.71473 h -1.645673 z"
         id="path6912"
         style="font-size:10.8104px;line-height:1.25;font-family:'Glitch Inside';-inkscape-font-specification:'Glitch Inside';text-align:center;letter-spacing:1.28062px;word-spacing:-0.873149px;white-space:pre;shape-inside:url(#rect6892);display:inline;fill:#d5faff;stroke:#000000;stroke-width:0.999999;stroke-opacity:0.75;paint-order:markers stroke fill" />
    </g>
  </g>
</svg>
