<?xml version="1.0" encoding="UTF-8" standalone="no"?>
<!-- Created with Inkscape (http://www.inkscape.org/) -->

<svg
   width="100"
   height="100"
   viewBox="0 0 100 100"
   version="1.1"
   id="svg3028"
   inkscape:version="1.2.2 (732a01da63, 2022-12-09)"
   sodipodi:docname="deckRocket.svg"
   xmlns:inkscape="http://www.inkscape.org/namespaces/inkscape"
   xmlns:sodipodi="http://sodipodi.sourceforge.net/DTD/sodipodi-0.dtd"
   xmlns="http://www.w3.org/2000/svg"
   xmlns:svg="http://www.w3.org/2000/svg">
  <sodipodi:namedview
     id="namedview3030"
     pagecolor="#ffffff"
     bordercolor="#666666"
     borderopacity="1.0"
     inkscape:showpageshadow="2"
     inkscape:pageopacity="0.0"
     inkscape:pagecheckerboard="0"
     inkscape:deskcolor="#d1d1d1"
     inkscape:document-units="mm"
     showgrid="false"
     inkscape:zoom="2.2097881"
     inkscape:cx="108.6077"
     inkscape:cy="57.471575"
     inkscape:window-width="1600"
     inkscape:window-height="1041"
     inkscape:window-x="1100"
     inkscape:window-y="0"
     inkscape:window-maximized="0"
     inkscape:current-layer="g8041" />
  <defs
     id="defs3025">
    <filter
       inkscape:collect="always"
       style="color-interpolation-filters:sRGB"
       id="filter2272"
       x="-0.015854199"
       y="-0.015854199"
       width="1.0317084"
       height="1.0317084">
      <feGaussianBlur
         inkscape:collect="always"
         stdDeviation="0.56826707"
         id="feGaussianBlur2270" />
    </filter>
  </defs>
  <g
     inkscape:label="Livello 1"
     inkscape:groupmode="layer"
     id="layer1">
    <g
       id="g8041"
       style="display:inline"
       transform="matrix(0.77271587,0,0,0.77271579,0.54618439,0.54618928)">
      <g
         id="g8370"
         style="display:inline">
        <path
           sodipodi:type="star"
           style="mix-blend-mode:normal;fill:#abc3d1;fill-opacity:1;stroke:#ef4b00;stroke-width:2.95311;stroke-linecap:round;stroke-linejoin:round;stroke-miterlimit:5.1;stroke-dasharray:none;stroke-opacity:0.336478;paint-order:markers fill stroke;filter:url(#filter2272);stop-color:#000000"
           id="path8237"
           inkscape:flatsided="true"
           sodipodi:sides="6"
           sodipodi:cx="17.196218"
           sodipodi:cy="20.816475"
           sodipodi:r1="93.291878"
           sodipodi:r2="84.053078"
           sodipodi:arg1="0.26179939"
           sodipodi:arg2="0.78539817"
           inkscape:rounded="0.1"
           inkscape:randomized="0"
           d="m 107.30925,44.96219 c -2.41457,9.011303 -56.956014,63.55275 -65.967317,65.96732 c -9.011303,2.41457 -83.516302,-17.548984 -90.113034,-24.145716 c -6.596732,-6.596732 -26.560286,-81.1017306 -24.145715,-90.113034 c 2.414572,-9.011303 56.956017,-63.552748 65.96732,-65.967319 c 9.0113034,-2.414572 83.516302,17.548983 90.113034,24.145715 c 6.596732,6.596732 26.560282,81.10173 24.145712,90.113034 z"
           inkscape:transform-center-x="-0.16541255"
           inkscape:transform-center-y="-2.6086635"
           transform="matrix(0.64135863,0.17185151,-0.17185151,0.64135863,56.548401,47.693981)" />
        <g
           aria-label="Rocket"
           transform="matrix(0.99925549,0,0,1.7260335,0.00253245,18.002988)"
           id="text8243"
           style="font-size:10.8104px;line-height:1.25;font-family:'Glitch Inside';-inkscape-font-specification:'Glitch Inside';text-align:center;letter-spacing:1.28062px;word-spacing:-0.873149px;white-space:pre;shape-inside:url(#rect8245);display:inline;fill:#d5faff;stroke:#000000;stroke-width:0.761442;stroke-opacity:0.75;paint-order:markers stroke fill">
          <path
             d="m 45.48312,10.56205 h 0.24809 l -0.443395,-0.7653844 h -0.226976 l -0.0053,-0.010557 c 0.490902,-0.063342 0.897348,-0.2744828 1.224616,-0.6334219 c 0.321989,-0.3589391 0.485623,-0.7812203 0.485623,-1.2774008 v -0.6439789 c 0,-0.3536605 -0.08446,-0.67565 -0.258647,-0.9659684 c -0.174191,-0.2903183 -0.406446,-0.522573 -0.696764,-0.696764 c -0.295597,-0.174191 -0.617586,-0.2639258 -0.965968,-0.2639258 h -6.941248 v 4.9037412 h 0.401167 v 1.784138 h -0.401167 v 1.008197 h 2.000557 v -3.2040594 h 3.151274 l 0.232254,0.4222814 h -0.332546 l 0.913183,1.567719 h 0.28504 l 0.670372,1.214059 h 2.000557 l -0.42756,-0.781221 h 0.517295 v -0.53313 h -0.812892 z m -7.089047,-0.7442703 h -0.142519 v -3.2515657 h 0.142519 z m 6.381726,-2.1061278 c 0,0.1214059 -0.04223,0.2216977 -0.126685,0.3061539 c -0.08446,0.084456 -0.184748,0.1266844 -0.306153,0.1266844 h -4.439232 v -0.8234484 h 0.464509 v -0.4486739 h 3.974723 c 0.121405,0 0.221697,0.042228 0.306153,0.1266844 c 0.08446,0.084456 0.126685,0.1847481 0.126685,0.3061539 z"
             id="path8281" />
          <path
             d="m 54.771248,7.0148879 h -0.517295 v -0.1372414 h 0.316711 c -0.263925,-0.153077 -0.548965,-0.2322547 -0.865676,-0.2322547 h -3.320187 c -0.438116,0 -0.818169,0.1425199 -1.140159,0.4328383 c -0.321989,0.2903183 -0.506737,0.6545359 -0.564801,1.0926527 h 0.232255 v 0.9712469 h 0.184748 v 0.1372414 h -0.184748 v 0.3061539 h -0.242812 v 1.752467 c 0,0.269204 0.05806,0.522573 0.174191,0.754828 c 0.116127,0.232255 0.274483,0.432838 0.475066,0.591194 h 0.696764 v 0.137241 h -0.490902 c 0.258648,0.158356 0.548966,0.237533 0.860398,0.237533 h 1.198223 h 2.121964 c 0.443395,0 0.823448,-0.147798 1.140159,-0.438117 c 0.32199,-0.290318 0.512016,-0.654535 0.57008,-1.092652 h -0.237533 v -1.414642 h 0.24809 v -1.7524676 c 0,-0.2692043 -0.05806,-0.5225731 -0.174191,-0.7548278 c -0.121406,-0.2322547 -0.279761,-0.4275597 -0.480345,-0.5911937 z m -5.436871,4.2069771 h -0.110849 v -3.2515658 h 0.110849 z m 4.360054,-1.298515 h -0.200584 v 0.49618 h 0.190027 v 0.137242 h -0.190027 v 1.092653 c -0.01056,0 -0.03695,0 -0.0739,0 c -0.03695,0 -0.07918,0.0053 -0.131963,0.0053 c -0.04751,0 -0.08973,0 -0.131963,0 c -0.03695,0 -0.06334,0 -0.06862,0 h -1.504377 v 0.131963 h -0.575358 c -0.168912,0 -0.311432,-0.05806 -0.432838,-0.17947 c -0.116127,-0.116127 -0.174191,-0.258647 -0.174191,-0.427559 v -1.4040855 h 0.200584 v -0.4961804 h -0.105571 v -0.1372414 h 0.105571 v -1.0873743 c 0.01056,-0.00528 0.03167,-0.00528 0.0739,-0.00528 c 0.03695,0 0.07918,0 0.126684,0 c 0.04751,0 0.09501,0 0.131963,0 c 0.04223,-0.00528 0.06334,-0.00528 0.0739,-0.00528 h 1.504377 v -0.1319629 h 0.575358 c 0.168913,0 0.311433,0.063342 0.42756,0.1794696 c 0.121406,0.1214058 0.17947,0.2639257 0.17947,0.4275597 z"
             id="path8283" />
          <path
             d="m 57.192028,8.1656043 h 0.585915 v 1.4146422 h -0.596472 v 1.7524675 c 0,0.274482 0.05806,0.522573 0.174191,0.760106 c 0.121406,0.232255 0.279761,0.42756 0.480345,0.585915 h 5.970001 l 0.190027,0.14252 h -5.959445 c 0.263926,0.153077 0.548966,0.232255 0.865677,0.232255 h 5.484378 v -1.272123 h -4.866792 c -0.163634,0 -0.306154,-0.05806 -0.427559,-0.179469 c -0.116128,-0.116127 -0.17947,-0.258647 -0.17947,-0.42756 v -1.404085 h 0.522573 v -1.7260746 c 0.02639,0 0.05806,-0.00528 0.08446,-0.00528 h 4.866792 v -1.4040852 h -5.484378 c -0.443395,0 -0.823448,0.1477985 -1.140159,0.4381168 c -0.32199,0.2903184 -0.512016,0.654536 -0.57008,1.0926528 z"
             id="path8285" />
          <path
             d="m 66.14233,9.9286285 v 2.4017245 h 0.253369 v 0.475067 h -0.253369 v 0.24809 h 1.615226 v -0.844563 h 0.195305 v -1.251008 h -0.195305 v -0.475066 h 1.588833 l 2.085014,2.570637 h 1.995279 l -2.533688,-3.1248815 z m 3.489099,-1.0768172 h -1.382971 v -0.9395758 h -0.490902 v -1.1296023 h -1.615226 v 1.3513 h 0.527852 v 1.1032097 h -0.527852 v 0.4961805 h 4.771778 l 2.512574,-3.0984887 h -1.995279 z"
             id="path8287" />
          <path
             d="m 78.30725,6.4184156 h -1.229894 v 0.2269762 h -1.583554 v 3.2304515 h -0.311433 v 1.5202127 h 0.311433 v 1.646897 h 6.524245 v -1.419921 h -4.930134 v -0.306154 h -0.295597 v -0.929019 h 4.993476 v -1.3829707 h -4.697879 v -0.9976395 h 4.930134 v -1.361857 h -3.710797 z"
             id="path8289" />
          <path
             d="m 83.773731,6.6348347 v 1.6468969 h 1.583555 v -0.2111406 h 0.929019 v 0.2111406 h 0.0739 v 2.2222554 h -0.406446 v 0.860398 h 0.406446 v 1.678568 h 1.646897 v -1.583555 h -0.417003 v -0.929019 h 0.417003 v -2.2486474 h 2.180027 v -1.6468969 h -3.826924 z m 5.241566,0.2375332 h 0.834006 v 0.1108489 h -0.834006 z m -2.41756,1.4093637 h 0.116127 v 1.9424934 h -0.116127 z"
             id="path8291" />
        </g>
        <g
           id="g8261"
           transform="matrix(1.1634546,0,0,1.1634546,166.46094,-266.53279)">
          <path
             style="fill:#e7e7a4;stroke-width:1.07855"
             d="m -114.57831,317.62728 c -0.88275,-1.0381 -2.70365,-3.48439 -4.04646,-5.43618 l -2.44147,-3.54873 v -13.97292 v -13.97293 l 3.67458,-5.12787 l 3.67458,-5.12788 l 4.09275,-0.34148 l 4.09275,-0.34149 l 3.93145,1.59162 l 3.931442,1.59163 l 5.479888,5.22954 l 5.47989,5.22955 l 0.725883,2.89215 l 0.725883,2.89215 l 4.579716,0.57915 c 2.518843,0.31853 8.219817,0.81788 12.66883,1.10966 c 4.449014,0.29179 9.181147,0.84527 10.515851,1.22994 l 2.426735,0.69942 v 1.45408 c 0,0.79975 -1.007732,1.9934 -2.239391,2.65257 l -2.239391,1.19849 l -8.276461,0.48288 c -4.552051,0.26558 -10.33733,0.74349 -12.856173,1.06202 l -4.579716,0.57915 l -0.725883,2.89215 l -0.725883,2.89215 l -5.47989,5.21801 c -6.236257,5.93824 -10.97987,8.28063 -16.7692,8.28063 h -4.01532 z m 9.57549,-21.84061 h 2.48066 v -1.07855 v -1.07855 h -2.48066 c -1.36436,0 -3.06308,-0.58242 -3.77492,-1.29426 l -1.29426,-1.29426 v 3.66707 v 3.66707 l 1.29426,-1.29426 c 0.71184,-0.71184 2.41056,-1.29426 3.77492,-1.29426 z m 7.334132,-1.07855 v -2.66683 l -1.617823,-0.31157 l -1.617819,-0.31156 v 3.28996 v 3.28996 l 1.617819,-0.31156 l 1.617823,-0.31157 z m 10.246213,0 v -3.23565 h -3.269497 h -3.269496 l -0.620817,1.61783 c -0.341449,0.8898 -0.341449,2.34584 0,3.23564 l 0.620817,1.61783 h 3.269496 h 3.269497 z m 26.694082,1.53302 l 4.583832,-0.58664 v -0.94638 v -0.94638 l -4.583832,-0.58664 c -2.521108,-0.32266 -9.068216,-0.71641 -14.549129,-0.875 l -9.965297,-0.28835 l -0.516703,1.34818 c -0.284187,0.74151 -0.284187,1.95487 0,2.69638 l 0.516703,1.34818 l 9.965297,-0.28835 c 5.480913,-0.15859 12.028021,-0.55234 14.549129,-0.875 z"
             id="path8279" />
          <path
             style="fill:#a7c733;stroke-width:1.07855"
             d="m -112.24364,318.8204 c -0.8978,-0.24427 -3.2032,-2.74606 -5.1231,-5.55954 l -3.49075,-5.11543 v -13.43731 v -13.43731 l 3.47397,-5.09084 l 3.47397,-5.09085 l 4.00335,-0.67636 l 4.00335,-0.67636 l 4.65636,2.14312 l 4.656351,2.14313 l 5.123106,5.04339 l 5.123107,5.04339 v 2.00004 c 0,2.98611 1.22255,3.35302 14.783162,4.43665 l 12.450485,0.99492 l 2.022128,1.08221 c 1.112178,0.59522 2.022139,1.53341 2.022139,2.08487 c 0,0.55146 -0.909961,1.48965 -2.022139,2.08487 l -2.022128,1.08221 l -12.450485,0.99492 c -13.576729,1.08492 -14.783162,1.4486 -14.783162,4.45635 v 2.01974 l -5.440401,5.19681 c -7.800742,7.45146 -14.111173,10.00452 -20.459313,8.27738 z m 15.114226,-24.11228 v -4.31419 h -7.549836 h -7.54985 v 4.31419 v 4.31419 h 7.54985 h 7.549836 z m -11.215216,1.97986 c 0.30637,-0.49572 1.98443,-0.90131 3.72903,-0.90131 h 3.17199 v -1.07855 v -1.07855 h -3.17199 c -1.7446,0 -3.42266,-0.40559 -3.72903,-0.90131 l -0.55704,-0.9013 l 3.99867,0.64996 l 3.99867,0.64997 v 1.58123 v 1.58123 l -3.99867,0.64997 l -3.99867,0.64996 z m 44.619157,0.0389 c 10.480719,-1.58848 10.480719,-2.44904 0,-4.03752 c -3.838723,-0.58181 -12.439649,-1.38934 -19.11317,-1.79451 l -12.133673,-0.73669 v 4.54996 v 4.54995 l 12.133673,-0.73668 c 6.673521,-0.40517 15.274447,-1.21271 19.11317,-1.79451 z"
             id="path8277" />
          <path
             style="fill:#6dd12c;stroke-width:1.07855"
             d="m -112.24364,318.8204 c -0.8978,-0.24427 -3.2032,-2.74606 -5.1231,-5.55954 l -3.49075,-5.11543 v -13.43731 v -13.43731 l 3.47397,-5.09084 l 3.47397,-5.09085 l 3.96723,-0.67026 l 3.96724,-0.67026 l 4.69247,2.14091 c 2.580859,1.1775 5.705851,3.27462 6.944429,4.66028 c 1.238576,1.38565 3.543974,3.60819 5.123106,4.93898 l 2.871149,2.4196 v 2.10057 c 0,1.15532 0.524853,2.42496 1.166339,2.82142 c 0.641486,0.39646 6.769056,1.16855 13.616823,1.71576 l 12.450485,0.99492 l 2.022128,1.08221 c 1.112178,0.59522 2.022139,1.53341 2.022139,2.08487 c 0,0.55146 -0.909961,1.48965 -2.022139,2.08487 l -2.022128,1.08221 l -12.450485,0.99492 c -13.576729,1.08492 -14.783162,1.4486 -14.783162,4.45635 v 2.01974 l -5.448545,5.15868 c -7.899839,7.47957 -14.163209,10.02627 -20.451169,8.31551 z m 48.966041,-21.89952 c 15.937156,-2.68354 4.784099,-5.14477 -27.978054,-6.17413 l -21.629237,-0.67957 l 0.0583,4.63558 l 0.0583,4.63559 l 21.570975,-0.67422 c 11.864036,-0.37082 24.427945,-1.15528 27.919796,-1.74325 z m -45.067031,-0.2329 c 0.30637,-0.49572 1.98443,-0.90131 3.72903,-0.90131 h 3.17199 v -1.07855 v -1.07855 h -3.17199 c -1.7446,0 -3.42266,-0.40559 -3.72903,-0.90131 l -0.55704,-0.9013 l 3.99867,0.64996 l 3.99867,0.64997 v 1.58123 v 1.58123 l -3.99867,0.64997 l -3.99867,0.64996 z m 11.215216,-1.97986 v -3.36295 l 1.078549,0.66658 c 0.593202,0.36662 1.078549,1.57998 1.078549,2.69637 c 0,1.11639 -0.485347,2.32975 -1.078549,2.69637 l -1.078549,0.66658 z"
             id="path8275" />
          <path
             style="fill:#ca4e14;stroke-width:1.07855"
             d="m -112.24364,318.8204 c -0.8978,-0.24427 -3.2032,-2.74606 -5.1231,-5.55954 l -3.49075,-5.11543 v -13.43731 v -13.43731 l 3.47397,-5.09084 l 3.47397,-5.09085 l 3.96723,-0.67026 l 3.96724,-0.67026 l 4.69247,2.14091 c 2.580859,1.1775 5.705851,3.27462 6.944429,4.66028 c 1.238576,1.38565 3.543974,3.60819 5.123106,4.93898 l 2.871149,2.4196 v 2.10057 c 0,1.15532 0.524853,2.42496 1.166339,2.82142 c 0.641486,0.39646 6.769056,1.16855 13.616823,1.71576 l 12.450485,0.99492 l 2.022128,1.08221 c 1.112178,0.59522 2.022139,1.53341 2.022139,2.08487 c 0,0.55146 -0.909961,1.48965 -2.022139,2.08487 l -2.022128,1.08221 l -12.450485,0.99492 c -13.576729,1.08492 -14.783162,1.4486 -14.783162,4.45635 v 2.01974 l -5.448545,5.15868 c -7.899839,7.47957 -14.163209,10.02627 -20.451169,8.31551 z m 7.56439,-3.8026 c -0.29661,-0.39711 0.48055,-1.85315 1.727,-3.23564 c 1.24646,-1.3825 2.64953,-3.24165 3.117945,-4.13145 l 0.851658,-1.61783 l -1.954443,1.84103 l -1.95444,1.84103 l -1.19966,-1.64063 l -1.19966,-1.64064 l -2.83033,2.22634 c -1.55668,1.22449 -3.15245,2.22634 -3.54616,2.22634 c -2.38744,0 -4.43815,-4.9763 -5.18558,-12.58345 c -0.12631,-1.28548 -0.51276,-2.62018 -0.8588,-2.96601 c -0.87035,-0.86982 -0.99587,2.15997 -0.35528,8.57543 l 0.54213,5.42927 l 3.29797,3.52883 l 3.29797,3.52882 l 3.39447,-0.32971 c 1.86697,-0.18134 3.15181,-0.65462 2.85521,-1.05173 z m 41.401651,-18.09692 c 15.937156,-2.68354 4.784099,-5.14477 -27.978054,-6.17413 l -21.629237,-0.67957 l 0.0583,4.63558 l 0.0583,4.63559 l 21.570975,-0.67422 c 11.864036,-0.37082 24.427945,-1.15528 27.919796,-1.74325 z m -33.851815,-2.21276 v -3.36295 l 1.078549,0.66658 c 0.593202,0.36662 1.078549,1.57998 1.078549,2.69637 c 0,1.11639 -0.485347,2.32975 -1.078549,2.69637 l -1.078549,0.66658 z m -7.549836,1.54949 c 4.04829,-0.76022 4.19456,-2.34959 0.26963,-2.92989 l -2.96601,-0.43853 l 3.23565,0.10056 l 3.23565,0.10055 v 1.61782 v 1.61783 l -3.50529,0.26963 l -3.50528,0.26964 z m -8.6284,-16.84102 v -0.75151 l 5.39275,0.2627 l 5.39274,0.26269 v -1.87107 c 0,-1.0291 -0.71948,-2.59056 -1.59885,-3.46993 l -1.59885,-1.59885 l -2.44571,0.58752 c -2.95122,0.70895 -9.45627,6.63104 -9.45627,8.60884 v 1.41538 l 2.1571,-1.34713 c 1.1864,-0.74092 2.15709,-1.68531 2.15709,-2.09864 z"
             id="path8273" />
          <path
             style="fill:#5b9924;stroke-width:1.07855"
             d="m -112.24364,318.8204 c -0.8978,-0.24427 -3.2032,-2.74606 -5.1231,-5.55954 l -3.49075,-5.11543 v -13.43731 v -13.43731 l 3.47397,-5.09084 l 3.47397,-5.09085 l 3.96723,-0.67026 l 3.96724,-0.67026 l 4.69247,2.14091 c 2.580859,1.1775 5.705851,3.27462 6.944429,4.66028 c 1.238576,1.38565 3.543974,3.60819 5.123106,4.93898 l 2.871149,2.4196 v 2.10057 c 0,1.15532 0.524853,2.42496 1.166339,2.82142 c 0.641486,0.39646 6.769056,1.16855 13.616823,1.71576 l 12.450485,0.99492 l 2.022128,1.08221 c 1.112178,0.59522 2.022139,1.53341 2.022139,2.08487 c 0,0.55146 -0.909961,1.48965 -2.022139,2.08487 l -2.022128,1.08221 l -12.450485,0.99492 c -13.576729,1.08492 -14.783162,1.4486 -14.783162,4.45635 v 2.01974 l -5.448545,5.15868 c -7.899839,7.47957 -14.163209,10.02627 -20.451169,8.31551 z m 7.56439,-3.8026 c -0.29661,-0.39711 0.48055,-1.85315 1.727,-3.23564 c 1.24646,-1.3825 2.64953,-3.24165 3.117945,-4.13145 l 0.851658,-1.61783 l -1.954443,1.84103 l -1.95444,1.84103 l -1.19966,-1.64063 l -1.19966,-1.64064 l -2.83033,2.22634 c -1.55668,1.22449 -3.15245,2.22634 -3.54616,2.22634 c -2.38744,0 -4.43815,-4.9763 -5.18558,-12.58345 c -0.12631,-1.28548 -0.51276,-2.62018 -0.8588,-2.96601 c -0.87035,-0.86982 -0.99587,2.15997 -0.35528,8.57543 l 0.54213,5.42927 l 3.29797,3.52883 l 3.29797,3.52882 l 3.39447,-0.32971 c 1.86697,-0.18134 3.15181,-0.65462 2.85521,-1.05173 z m -6.05607,-10.46567 l 1.8281,-2.02003 l -2.20021,-0.57537 l -2.20022,-0.57537 v 2.5954 c 0,3.12412 0.221,3.17356 2.57233,0.57537 z m 47.457721,-7.63125 c 15.930911,-2.68249 4.784972,-5.14471 -27.944309,-6.17312 l -21.595492,-0.67857 v 4.63893 v 4.63893 l 21.595492,-0.67857 c 11.877518,-0.37321 24.452457,-1.15963 27.944309,-1.7476 z m -33.851815,-2.21276 v -3.36295 l 1.078549,0.66658 c 0.593202,0.36662 1.078549,1.57998 1.078549,2.69637 c 0,1.11639 -0.485347,2.32975 -1.078549,2.69637 l -1.078549,0.66658 z m -7.549836,1.54949 c 4.04829,-0.76022 4.19456,-2.34959 0.26963,-2.92989 l -2.96601,-0.43853 l 3.23565,0.10056 l 3.23565,0.10055 v 1.61782 v 1.61783 l -3.50529,0.26963 l -3.50528,0.26964 z m -10.07119,-2.89768 l -0.54401,-1.34818 v 2.69637 v 2.69637 l 0.54401,-1.34818 c 0.2992,-0.74151 0.2992,-1.95487 0,-2.69638 z m 5.75699,-6.69956 c 0,-0.13547 -0.97069,-1.12478 -2.1571,-2.19846 l -2.1571,-1.95215 v 2.76256 v 2.76256 l 2.1571,-0.56409 c 1.18641,-0.31025 2.1571,-0.67494 2.1571,-0.81042 z m -4.3142,-7.24378 v -0.75151 l 5.39275,0.2627 l 5.39274,0.26269 v -1.87107 c 0,-1.0291 -0.71948,-2.59056 -1.59885,-3.46993 l -1.59885,-1.59885 l -2.44571,0.58752 c -2.95122,0.70895 -9.45627,6.63104 -9.45627,8.60884 v 1.41538 l 2.1571,-1.34713 c 1.1864,-0.74092 2.15709,-1.68531 2.15709,-2.09864 z"
             id="path8271" />
          <path
             style="fill:#525352;stroke-width:1.07855"
             d="m -112.24364,318.8204 c -0.8978,-0.24427 -3.2032,-2.74606 -5.1231,-5.55954 l -3.49075,-5.11543 v -13.43731 v -13.43731 l 3.47397,-5.09084 l 3.47397,-5.09085 l 3.96723,-0.67026 l 3.96724,-0.67026 l 4.69247,2.14091 c 2.580859,1.1775 5.705851,3.27462 6.944429,4.66028 c 1.238576,1.38565 3.543974,3.60819 5.123106,4.93898 l 2.871149,2.4196 v 2.10057 c 0,1.15532 0.524853,2.42496 1.166339,2.82142 c 0.641486,0.39646 6.769056,1.16855 13.616823,1.71576 l 12.450485,0.99492 l 2.022128,1.08221 c 1.112178,0.59522 2.022139,1.53341 2.022139,2.08487 c 0,0.55146 -0.909961,1.48965 -2.022139,2.08487 l -2.022128,1.08221 l -12.450485,0.99492 c -13.576729,1.08492 -14.783162,1.4486 -14.783162,4.45635 v 2.01974 l -5.448545,5.15868 c -7.899839,7.47957 -14.163209,10.02627 -20.451169,8.31551 z m 7.63529,-2.57925 c 1.14741,-0.61408 2.08619,-1.80043 2.08619,-2.63635 c 0,-0.83592 1.66839,-3.341 3.707528,-5.56684 c 2.039139,-2.22584 3.464823,-4.43968 3.168187,-4.91965 l -0.539338,-0.87267 l -4.799497,0.18154 l -4.7995,0.18154 l -1.3347,1.61902 l -1.3347,1.61903 l 2.42674,-1.29308 l 2.42673,-1.29308 v 1.1165 c 0,0.61407 -0.64341,1.1165 -1.42981,1.1165 c -0.7864,0 -2.52953,1.17059 -3.87362,2.60131 l -2.4438,2.6013 l -2.0584,-1.76245 l -2.0584,-1.76246 v -2.81619 c 0,-1.54891 -0.30417,-3.12036 -0.67593,-3.49212 c -0.99972,-0.99971 -0.71801,-12.66244 0.39615,-16.40109 l 0.96427,-3.23565 l 2.44307,-0.35631 l 2.44307,-0.3563 l 2.00019,1.81015 l 2.00019,1.81015 l 1.14651,-0.70859 l 1.14651,-0.70858 v 1.68147 c 0,2.03022 -1.19646,2.15339 -3.23755,0.33329 l -1.51188,-1.34818 l 1.33812,1.77888 l 1.33811,1.77888 l 3.90149,-0.16106 l 3.901489,-0.16106 l 0.255597,-1.75304 l 0.255595,-1.75304 l -2.58121,-2.78372 c -1.419661,-1.53104 -2.581211,-3.51584 -2.581211,-4.41066 v -1.62695 l -2.13496,-1.1426 l -2.13497,-1.1426 l -2.60032,0.65264 c -1.43017,0.35895 -3.9882,2.10128 -5.68451,3.87184 l -3.08419,3.21921 v 14.95804 v 14.95804 l 3.11458,3.25092 c 1.71302,1.78801 4.13975,3.4525 5.39274,3.69887 c 1.25299,0.24636 2.43141,0.51403 2.61871,0.59481 c 0.18729,0.0808 1.27932,-0.35554 2.42673,-0.96961 z m -3.748,-10.46996 c -0.74797,-0.74797 -2.7942,0.77175 -2.7942,2.07523 v 1.14696 l 1.64389,-1.36431 c 0.90414,-0.75036 1.42178,-1.58641 1.15031,-1.85788 z m -2.37897,-1.21906 l 1.8281,-2.02003 l -2.20021,-0.57537 l -2.20022,-0.57537 v 2.5954 c 0,3.12412 0.221,3.17356 2.57233,0.57537 z m 47.457721,-7.63125 c 15.930911,-2.68249 4.784972,-5.14471 -27.944309,-6.17312 l -21.595492,-0.67857 v 4.63893 v 4.63893 l 21.595492,-0.67857 c 11.877518,-0.37321 24.452457,-1.15963 27.944309,-1.7476 z m -43.289121,-0.79913 c 1.03811,-0.27129 2.73682,-0.27129 3.77493,0 l 1.88746,0.49324 h -3.77492 h -3.77493 z m 9.437306,-1.41363 v -2.1571 h 1.078549 h 1.078549 v 2.1571 v 2.1571 h -1.078549 h -1.078549 z m -9.437306,-1.82202 c 1.03811,-0.27128 2.73682,-0.27128 3.77493,0 l 1.88746,0.49324 h -3.77492 h -3.77493 z m -8.18372,0.47383 l -0.54401,-1.34818 v 2.69637 v 2.69637 l 0.54401,-1.34818 c 0.2992,-0.74151 0.2992,-1.95487 0,-2.69638 z m 5.75699,-6.69956 c 0,-0.13547 -0.97069,-1.12478 -2.1571,-2.19846 l -2.1571,-1.95215 v 2.76256 v 2.76256 l 2.1571,-0.56409 c 1.18641,-0.31025 2.1571,-0.67494 2.1571,-0.81042 z m 0.53927,-3.81629 c -0.36661,-0.5932 -1.15192,-1.07855 -1.74512,-1.07855 h -1.07855 l 0.66658,1.07855 c 0.36662,0.59321 1.15192,1.07855 1.74513,1.07855 h 1.07854 z"
             id="path8269" />
          <path
             style="fill:#556220;stroke-width:1.07855"
             d="m -111.15055,318.57308 l -2.69637,-0.74801 l -3.50528,-5.20908 l -3.50529,-5.20907 v -12.6988 v -12.6988 l 3.50529,-5.245 c 1.9279,-2.88475 3.99063,-5.28457 4.58383,-5.33294 c 0.5932,-0.0484 2.37212,-0.45466 3.95314,-0.90289 l 2.8746,-0.81495 l 4.13597,1.90268 c 2.274785,1.04648 5.592013,3.43119 7.371618,5.29935 c 1.779606,1.86817 4.11716,3.88228 5.194566,4.47582 l 1.958919,1.07915 l 0.833176,3.69205 l 0.833176,3.69206 l -13.577583,-0.16249 c -7.467672,-0.0894 -13.827102,-0.0101 -14.132072,0.17605 c -0.30497,0.1862 -0.38089,2.52123 -0.16872,5.18897 l 0.38577,4.85043 l 13.746349,-0.17301 l 13.746349,-0.17301 l -0.833222,3.69206 l -0.833223,3.69205 l -1.958919,1.08491 c -1.077406,0.59671 -3.326989,2.54109 -4.999072,4.32086 c -5.039279,5.36382 -11.473332,7.73064 -16.913002,6.22161 z m 6.92236,-1.8701 l 1.70603,-0.65467 v -1.98168 v -1.98169 l 3.707528,-4.04698 c 2.039139,-2.22584 3.464823,-4.43968 3.168187,-4.91965 l -0.539338,-0.87267 l -4.799497,0.18154 l -4.7995,0.18154 l -1.3347,1.61902 l -1.3347,1.61903 l 2.42674,-1.29308 l 2.42673,-1.29308 v 1.1165 c 0,0.61407 -0.58012,1.1165 -1.28917,1.1165 c -0.70904,0 -2.65043,1.30417 -4.31419,2.89816 l -3.02503,2.89815 v -1.81961 v -1.8196 h -1.61782 h -1.61782 v -3.05589 c 0,-1.68074 -0.29644,-3.35232 -0.65874,-3.71463 c -1.75205,-1.75205 -0.13167,-19.11466 1.78389,-19.11466 c 0.47054,0 1.74457,-0.30796 2.83119,-0.68437 l 1.97568,-0.68437 l -1.81288,1.49328 c -1.97504,1.62686 -2.96639,4.56757 -1.68509,4.99857 c 0.44088,0.1483 1.86505,0.26964 3.16483,0.26964 h 2.36324 l -2.0936,-1.63345 l -2.0936,-1.63344 l 1.61782,0.28526 l 1.61782,0.28526 l -0.33049,-1.53076 l -0.33049,-1.53075 l 1.63143,1.35397 l 1.63143,1.35397 l 1.1258,-0.69578 l 1.12579,-0.69578 v 1.68147 c 0,2.03022 -1.19646,2.15339 -3.23755,0.33329 l -1.51188,-1.34818 l 1.33812,1.77888 l 1.33811,1.77888 l 3.90149,-0.16106 l 3.901489,-0.16106 l 0.255597,-1.75304 l 0.255595,-1.75304 l -2.58121,-2.78372 l -2.581211,-2.78372 v -2.13148 v -2.13149 l -2.06537,-0.65553 c -4.94712,-1.57015 -12.52168,2.92903 -13.64952,8.10762 c -0.5546,2.54655 -0.63388,23.468 -0.1024,27.02665 c 0.14197,0.9506 1.50773,3.21344 3.03504,5.02854 l 2.77691,3.30017 l 2.57594,0.48696 c 1.41676,0.26783 2.90025,0.55306 3.29663,0.63384 c 0.39639,0.0808 1.48842,-0.14772 2.42674,-0.50778 z m -4.31239,-11.34917 l -0.60192,-0.97394 l -1.27366,0.76391 l -1.27366,0.7639 l 1.48025,-1.82486 l 1.48024,-1.82486 h -1.74988 c -0.96244,0 -2.1139,0.0318 -2.5588,0.0707 c -1.05249,0.092 -0.38056,3.3199 1.0545,5.06568 l 1.11916,1.36149 l 1.46285,-1.21406 l 1.46285,-1.21405 l -0.60193,-0.97394 z m -6.20986,-11.99388 l -0.54401,-1.34818 v 2.69637 v 2.69637 l 0.54401,-1.34818 c 0.2992,-0.74151 0.2992,-1.95487 0,-2.69638 z m 31.439932,6.00416 c 0.778577,-0.31156 1.708826,-0.27324 2.067219,0.0851 c 0.358392,0.3584 -0.278626,0.61331 -1.415595,0.56648 l -2.067219,-0.0851 z m 4.246786,-1.05608 c 0.741502,-0.2992 1.954869,-0.2992 2.696372,0 l 1.348186,0.54401 h -2.696372 h -2.696372 z m -4.246786,-8.65086 c 0.778577,-0.31156 1.708826,-0.27324 2.067219,0.0851 c 0.358392,0.3584 -0.278626,0.61331 -1.415595,0.56648 l -2.067219,-0.0851 z"
             id="path8267" />
          <path
             style="fill:#33501c;stroke-width:1.07855"
             d="m -111.15055,318.57308 l -2.69637,-0.74801 l -3.50528,-5.20908 l -3.50529,-5.20907 v -12.6988 v -12.6988 l 3.50529,-5.245 c 1.9279,-2.88475 3.99063,-5.28457 4.58383,-5.33294 c 0.5932,-0.0484 2.37212,-0.45466 3.95314,-0.90289 l 2.8746,-0.81495 l 4.13597,1.90268 c 2.274785,1.04648 5.592013,3.43119 7.371618,5.29935 c 1.779606,1.86817 4.11716,3.88228 5.194566,4.47582 l 1.958919,1.07915 l 0.833331,3.69205 l 0.833331,3.69206 l -13.536659,-0.21201 l -13.536656,-0.21201 l -1.38927,1.15298 l -1.38926,1.15299 l 0.14198,3.37322 l 0.14198,3.37322 l 0.79459,-3.77492 l 0.79458,-3.77492 l 0.14198,4.53607 l 0.14198,4.53607 l 13.847378,-0.22187 l 13.847374,-0.22188 l -0.83333,3.69206 l -0.833329,3.69205 l -1.958919,1.08491 c -1.077406,0.59671 -3.326989,2.54109 -4.999072,4.32086 c -5.039279,5.36382 -11.473332,7.73064 -16.913002,6.22161 z m 6.92236,-1.8701 l 1.70603,-0.65467 v -1.64135 c 0,-0.90274 1.71521,-3.53988 3.81158,-5.8603 l 3.811576,-4.21896 l -0.639583,-1.03487 l -0.639583,-1.03487 h -4.82776 h -4.82777 l -2.92806,1.86884 l -2.92806,1.86884 l 1.37571,-1.74288 l 1.37572,-1.74289 l -1.74269,-0.66873 c -0.95847,-0.3678 -2.16568,-0.4073 -2.68268,-0.0878 l -0.94001,0.58096 l 1.01064,2.65819 l 1.01064,2.65819 h -1.48523 h -1.48522 l -0.75108,-6.4713 l -0.75107,-6.47129 l 0.73933,-6.37012 l 0.73933,-6.37012 l 1.92833,-0.50427 l 1.92833,-0.50427 l -1.45486,2.80425 l -1.45487,2.80426 l 0.79917,0.79916 l 0.79916,0.79917 l 2.43326,-0.63631 l 2.43326,-0.63632 l -1.91259,-1.59923 l -1.91258,-1.59924 l 2.69637,1.56023 l 2.69637,1.56024 l 5.05565,0.17752 l 5.055647,0.17753 l 0.574021,-0.92879 l 0.574022,-0.92878 l -3.742208,-4.37193 c -2.058212,-2.40457 -3.742212,-5.09221 -3.742212,-5.97255 v -1.60062 l -1.70603,-0.65466 c -0.93832,-0.36007 -2.84247,-0.65467 -4.23145,-0.65467 h -2.5254 l -3.31074,2.7858 l -3.31073,2.78579 l -0.81658,3.11445 l -0.81657,3.11444 l 0.53927,12.90143 l 0.53928,12.90144 l 3.41324,3.84785 l 3.41325,3.84785 h 2.7002 c 1.4851,0 3.46791,-0.2946 4.40623,-0.65467 z m 7.806213,-38.70395 c -1.152195,-2.48418 -2.864534,-3.66824 -2.864534,-1.9808 c 0,0.68977 3.273188,4.66876 3.840607,4.66876 c 0.148851,0 -0.290383,-1.20958 -0.976073,-2.68796 z m 13.111469,21.36506 c 0.778577,-0.31156 1.708826,-0.27324 2.067219,0.0851 c 0.358392,0.3584 -0.278626,0.61331 -1.415595,0.56648 l -2.067219,-0.0851 z m 4.246786,-1.05608 c 0.741502,-0.2992 1.954869,-0.2992 2.696372,0 l 1.348186,0.54401 h -2.696372 h -2.696372 z m -4.246786,-8.65086 c 0.778577,-0.31156 1.708826,-0.27324 2.067219,0.0851 c 0.358392,0.3584 -0.278626,0.61331 -1.415595,0.56648 l -2.067219,-0.0851 z"
             id="path8265" />
          <path
             style="fill:#131417;stroke-width:1.07855"
             d="m -111.15055,318.56239 l -2.69637,-0.73732 l -3.50528,-5.20908 l -3.50529,-5.20907 v -12.6988 v -12.6988 l 3.50529,-5.245 c 1.9279,-2.88475 3.99063,-5.26886 4.58383,-5.29802 c 0.5932,-0.0292 2.22395,-0.44281 3.62388,-0.91923 l 2.54534,-0.86622 l 4.38221,1.97611 l 4.38221,1.9761 l 5.745403,5.4766 l 5.745401,5.4766 v 2.36456 v 2.36456 l -4.583832,0.0911 c -2.521108,0.0501 -8.692125,0.17142 -13.713372,0.26964 l -9.12954,0.17857 l -1.47165,2.69637 l -1.47165,2.69637 l 0.61274,-4.31419 c 0.33701,-2.37281 0.61809,-5.40623 0.62462,-6.74093 l 0.0119,-2.42674 h 1.59113 h 1.59113 l -1.05186,2.76659 c -1.48138,3.89635 -1.40152,4.02875 1.91416,3.17344 c 1.6313,-0.42082 5.83668,-0.83744 9.34529,-0.92584 l 6.379273,-0.16072 l 0.45629,-1.36246 l 0.45629,-1.36246 l -3.330284,-2.92227 c -1.831656,-1.60725 -3.330279,-3.52331 -3.330279,-4.25791 c 0,-0.73459 -1.01287,-2.27926 -2.25081,-3.43258 l -2.25081,-2.09694 l -3.29055,0.94371 c -3.60453,1.03377 -6.90898,3.64184 -8.58712,6.77748 l -1.07981,2.01763 l 0.0654,13.91584 l 0.0654,13.91583 l 3.00177,3.79542 l 3.00177,3.79542 l 2.42673,0.62289 c 1.3347,0.34259 3.6401,0.31835 5.12311,-0.0538 l 2.69637,-0.67675 v -1.9381 v -1.93809 l 3.774919,-3.34207 l 3.77492,-3.34206 v -1.78176 v -1.78176 l -7.287759,0.29753 l -7.28775,0.29753 l -1.34064,-0.82855 c -0.73735,-0.45571 -1.80743,-0.54006 -2.37797,-0.18745 l -1.03733,0.64111 l 1.04589,2.75092 l 1.0459,2.75092 l -1.35285,-0.45095 l -1.35285,-0.45095 l -0.69909,-4.22561 c -0.81054,-4.89927 -0.50446,-5.57385 1.69921,-3.74497 l 1.59931,1.32732 l 8.40333,-0.20667 c 4.621829,-0.11366 10.46605,-0.15644 12.987157,-0.0951 l 4.583832,0.11159 v 2.36456 v 2.36456 l -5.846973,5.57342 l -5.846972,5.57342 l -4.421064,1.76896 c -4.77976,1.91248 -4.70855,1.90579 -8.69161,0.81661 z m 17.328262,-8.48495 c 5.045206,-4.86798 6.317468,-6.76343 4.512353,-6.72266 c -1.289622,0.0291 -11.055125,9.5143 -11.055125,10.73777 c 0,1.91703 1.084265,1.25165 6.542772,-4.01511 z m 5.315444,-24.80662 c -0.0067,-0.92641 -10.30627,-11.05513 -11.241642,-11.05513 c -1.951024,0 0.03868,3.16723 4.506533,7.17352 c 5.023016,4.50411 6.746735,5.49753 6.735109,3.88161 z m -25.709056,9.4373 v -2.69637 l 0.54401,1.34818 c 0.2992,0.74151 0.2992,1.95487 0,2.69638 l -0.54401,1.34818 z"
             id="path8263" />
        </g>
      </g>
    </g>
  </g>
</svg>
