<?xml version="1.0" encoding="UTF-8"?>
<svg id="svg3028" version="1.1" viewBox="0 0 100 100" xmlns="http://www.w3.org/2000/svg"><defs id="defs3025"><filter id="filter2272" x="-.01585" y="-.01585" width="1.032" height="1.032" style="color-interpolation-filters:sRGB"><feGaussianBlur id="feGaussianBlur2270" stdDeviation="0.56826707"/></filter></defs><g id="layer1"><path id="path983" transform="matrix(.4956 .1328 -.1328 .4956 44.25 37.33)" d="m107.3 44.96c-2.415 9.011-56.96 63.55-65.97 65.97s-83.52-17.55-90.11-24.15-26.56-81.1-24.15-90.11c2.415-9.011 56.96-63.55 65.97-65.97 9.011-2.415 83.52 17.55 90.11 24.15s26.56 81.1 24.15 90.11z" style="fill:#abd1b2;filter:url(#filter2272);mix-blend-mode:normal;paint-order:markers fill stroke;stop-color:#000000;stroke-linecap:round;stroke-linejoin:round;stroke-miterlimit:5.1;stroke-opacity:.3365;stroke-width:2.953;stroke:#00ef00"/><g id="text989" transform="matrix(.7721 0 0 1.334 .5524 28.59)" style="fill:#d5faff;paint-order:markers stroke fill;shape-inside:url(#rect991);stroke-opacity:.75;stroke-width:.7614;stroke:#000000;white-space:pre" aria-label="Upgrade Empty"><path id="path2274" d="m39.51 5.431h-1.884v4.471h.4803v1.061h-.4803v.512h-4.043v-6.044h-1.531v.4487h-.3801v2.908h-.5015v2.761h.5015v.9554h-.4117v.549h4.83v-.4803h.2481v.4803h3.167v-.2745h.0053v-1.921h.4751v-.9871h-.4751zm-.2692 4.117h-.1267v-3.727h.1267z"/><path id="path2276" d="m48.41 6.909h-.9026v-.2692h-5.775v4.091h.3378v1.489h-.3378v.8393h1.673v-2.671h4.297l-.0053-.01056c.4117-.05279.7495-.227 1.024-.5279.2692-.3009.4064-.6545.4064-1.066v-.5384c0-.2745-.06862-.5331-.1953-.7654-.132-.2323-.3009-.4223-.5226-.5701zm-6.281 3.489h-.08973v-2.629h.08973zm5.337-1.752c0 .1003-.03167.1847-.1056.2534-.06862.0739-.1531.1056-.2534.1056h-3.7v-.6862h.3853v-.3695h3.315c.1003 0 .1847.03167.2534.1056.0739.06862.1056.1531.1056.2534z"/><path id="path2278" d="m58.21 9.554h-.02639v-.2903h-.3062v.285h-3.014v1.14h1.7v1.087h-3.336c-.1636 0-.3062-.05806-.4276-.1795-.1161-.1161-.1795-.2586-.1795-.4276v-1.399h.2059v-.4962h-1.689v.3062h-.2481v1.747c0 .2745.05806.5279.1795.7601.1161.2323.2745.4276.4751.5859h5.02v.1372h-4.819c.2639.1584.549.2375.8657.2375h5.601v-1.679h.4117v-.8604h-.4117zm-7.073-.417h1.689v-1.093h.06862c.03695-.00528.08446-.00528.132-.00528h.132.06862 4.983v-1.404h-.1214v-.1478h-1.262v.1478h-4.218c-.4381 0-.8234.1478-1.14.4381-.322.2903-.512.6545-.5701 1.093h.2375z"/><path id="path2280" d="m66.69 10.98h.2059l-.3695-.6387h-.19l-.0053-.01056c.4117-.05279.7495-.227 1.019-.5279.2745-.3009.4064-.6545.4064-1.066v-.5331c0-.4434-.1531-.8182-.4698-1.135-.3114-.3114-.6915-.4698-1.13-.4698h-5.78v4.086h.3325v1.483h-.3325v.8393h1.668v-2.666h2.623l.1953.3484h-.2798l.7601 1.309h.2375l.5542 1.008h1.673l-.3589-.6493h.4328v-.4487h-.6809zm-5.907-.6229h-.1161v-2.708h.1161zm5.315-1.752c0 .09501-.03167.1795-.1056.2534-.06862.06862-.1531.1056-.2534.1056h-3.695v-.6862h.3853v-.3748h3.31c.1003 0 .1847.03695.2534.1056.0739.0739.1056.1584.1056.2534z"/><path id="path2282" d="m77.51 10.66-2.623-4.017v-.02111h-1.061v.02111l-1.198 1.832h-1.325l.3273.4064h.7337l-.4328.6598h-.2534l-1.663 2.497h.285l-.6598 1.008h1.621l.871-1.167h-.4223l1.547-2.333.4909-.01056.607-.929 1.32 2.053zm-1.599.3695.03167.04751h-.3378v.5067h.6651l.9396 1.462h1.863l-1.32-2.016z"/><path id="path2284" d="m88.1 9.195h-1.636v.4803h.1953v1.362c0 .1636-.05806.3009-.1742.417-.1161.1161-.2534.1742-.417.1742h-3.241v-3.632h3.241.06862.1267.1267c.04223.00528.06334.00528.0739.00528v1.061h1.636v-.9449h.227c-.05279-.4276-.2375-.7812-.549-1.061-.3114-.2798-.6809-.4223-1.108-.4223h-5.442v3.764h-.3959v.834h.3959v1.631h5.442c.3062 0 .5859-.07918.8393-.227h-4.682v-.1372h4.877c.1953-.1584.3484-.3484.4645-.5701.1108-.227.1689-.4751.1689-.739v-1.7h-.2375zm-6.53.929h-.1108v-2.127h.1108z"/><path id="path2286" d="m93.21 6.418h-1.23v.227h-1.584v3.23h-.3114v1.52h.3114v1.647h6.524v-1.42h-4.93v-.3062h-.2956v-.929h4.993v-1.383h-4.698v-.9976h4.93v-1.362h-3.711z"/><path id="path2288" d="m45.29 18.6h-1.478v.2745h-1.895v3.874h-.3748v1.826h.3748v1.979h7.828v-1.705h-5.917v-.3695h-.3537v-1.114h5.991v-1.657h-5.637v-1.204h5.917v-1.631h-4.455z"/><path id="path2290" d="m59.87 20.47v3.267h-.1108v-3.204h-.02639v-.4012h-1.277v.3431l-2.28 1.731h-.2111l-1.256-.9554h-.702v-.1478h.5067l-.8287-.6281v-.3431h-2.175v.7179h.5226v3.637h-.4117v.8604h.4117v1.219h1.652v-1.589h-.417v-.9343h.417v-1.879l.512.3906c.4012.3009.7971.6018 1.193.9026.1953.1478.3853.2956.5754.4381h.2111c.2111-.1584.3853-.2903.5173-.3906.132-.1056.2375-.1847.3062-.2375.0739-.05806.1214-.09501.1425-.1161.02639-.02111.03167-.02639.02639-.02639-.01056.0053-.02639.01584-.04751.03167-.05279.03695-.08973.06334-.1108.0739-.02111.01584-.02639.02111-.02639.02111s.0053-.0053.02111-.01583c.01584-.01056.03167-.02111.05279-.03695.02111-.01583.04223-.03167.06334-.04223.1214-.08974.4012-.2903.8393-.6018h-.01056l.5067-.3906v1.879h.4223v.9343h-.4223v1.589h1.652v-2.206h.417v-.8604h-.417v-2.65h.5226v-.7179h-.7601zm-7.485 3.267h-.1161v-3.267h.1161z"/><path id="path2292" d="m69.06 20.42h-.9026v-.2692h-5.775v4.091h.3378v1.489h-.3378v.8393h1.673v-2.671h4.297l-.0053-.01056c.4117-.05279.7495-.227 1.024-.5279.2692-.3009.4064-.6545.4064-1.066v-.5384c0-.2745-.06862-.5331-.1953-.7654-.132-.2323-.3009-.4223-.5226-.5701zm-6.281 3.489h-.08973v-2.629h.08973zm5.337-1.752c0 .1003-.03167.1847-.1056.2534-.06862.0739-.1531.1056-.2534.1056h-3.7v-.6862h.3853v-.3695h3.315c.1003 0 .1847.03167.2534.1056.0739.06862.1056.1531.1056.2534z"/><path id="path2294" d="m71.53 20.15v1.647h1.584v-.2111h.929v.2111h.0739v2.222h-.4064v.8604h.4064v1.679h1.647v-1.584h-.417v-.929h.417v-2.249h2.18v-1.647h-3.827zm5.242.2375h.834v.1108h-.834zm-2.418 1.409h.1161v1.942h-.1161z"/><path id="path2296" d="m81.6 23.78v1.51h.3537v-1.51zm2.586-3.384h.3589l-1.309 1.552h-.6651l-.5384-.6281h.549l-1.14-1.177h-2.264v.2534h.3642l.644.7654h-.3695l1.895 2.196-.03167.03167h.4434v2.412h-.607v.6387h.607v.132h2.096v-.9554h-.1742v-1.874h.1742v-.549h-.3009l.1372-.1636.6387-.0053c.5226-.6229 1.098-1.33 1.726-2.122.2217-.2798.4276-.5331.607-.7601h-2.84zm-1.621 5.843h-.1425v-2.85h.1425zm3.816-5.685-1.8 2.175-.09501-.04751 1.8-2.175z"/></g></g></svg>
